<svg width="68" height="68" viewBox="0 0 68 68" fill="none" xmlns="http://www.w3.org/2000/svg">
<path d="M36.8393 22.6864C45.817 22.6864 50.9096 28.6287 51.6503 35.8052H51.8769C57.6544 35.8052 62.3379 40.4765 62.3379 46.2389C62.3379 52.0014 57.6544 56.6727 51.8769 56.6727H21.8019C16.0245 56.6727 11.341 52.0014 11.341 46.2389C11.341 40.4765 16.0245 35.8052 21.8019 35.8052H22.0284C22.7734 28.5816 27.8619 22.6864 36.8393 22.6864ZM36.8393 26.9296C30.9706 26.9296 25.8554 31.5572 25.8554 37.9492C25.8554 38.9618 24.9517 39.7566 23.9169 39.7566H21.9603C18.3875 39.7566 15.4912 42.5936 15.4912 46.093C15.4912 49.5928 18.3875 52.4295 21.9603 52.4295H51.7185C55.2914 52.4295 58.1876 49.5928 58.1876 46.093C58.1876 42.5936 55.2914 39.7566 51.7185 39.7566H49.7618C48.7271 39.7566 47.8233 38.9618 47.8233 37.9492C47.8233 31.475 42.7083 26.9296 36.8393 26.9296ZM12.3753 34.4602C12.787 35.4542 12.3887 36.5815 11.4843 37.1083L11.2253 37.2366L8.60087 38.3238C7.51661 38.7728 6.27354 38.258 5.82443 37.1737C5.41272 36.1798 5.81108 35.0524 6.71548 34.5254L6.97445 34.3973L9.59888 33.3102C10.6831 32.8611 11.9262 33.3759 12.3753 34.4602ZM30.7553 20.7661L30.2691 20.9292C28.7558 21.4638 27.3711 22.1874 26.1315 23.0771C24.6201 22.5845 22.9307 22.6081 21.3454 23.2648C17.8157 24.7268 16.1395 28.7734 17.6016 32.3032C17.7733 32.7177 17.9807 33.1067 18.2187 33.4683C16.8241 33.8576 15.518 34.4764 14.3468 35.2793C14.0952 34.8541 13.8708 34.4021 13.6751 33.9295C11.3148 28.2313 14.0208 21.6986 19.719 19.3383C23.5222 17.7629 27.6971 18.4444 30.7553 20.7661ZM8.33286 20.8542L8.63181 20.953L11.2562 22.0401C12.3405 22.4892 12.8554 23.7323 12.4063 24.8166C11.998 25.8023 10.9336 26.3174 9.92877 26.0655L9.62982 25.9666L7.00539 24.8795C5.92113 24.4304 5.40623 23.1873 5.85537 22.1031C6.26365 21.1174 7.32808 20.6022 8.33286 20.8542ZM19.1427 12.3926L19.2709 12.6516L20.358 15.276C20.8071 16.3603 20.2923 17.6034 19.208 18.0525C18.2141 18.4642 17.0867 18.0658 16.5598 17.1614L16.4315 16.9024L15.3445 14.278C14.8953 13.1937 15.4102 11.9507 16.4945 11.5016C17.4884 11.0899 18.6158 11.4882 19.1427 12.3926ZM31.4772 11.4902C32.4629 11.8985 32.978 12.9629 32.7261 13.9677L32.6273 14.2667L31.5401 16.8911C31.091 17.9753 29.848 18.4902 28.7637 18.0411C27.778 17.6328 27.2628 16.5684 27.5148 15.5636L27.6136 15.2647L28.7008 12.6402C29.1499 11.556 30.3929 11.0411 31.4772 11.4902Z" fill="#253439"/>
</svg>
