<svg width="42" height="42" viewBox="0 0 42 42" fill="none" xmlns="http://www.w3.org/2000/svg">
<path d="M31.57 23.7125C30.835 24.43 30.415 25.4625 30.52 26.565C30.6775 28.455 32.41 29.8375 34.3 29.8375H37.625V31.92C37.625 35.5425 34.6675 38.5 31.045 38.5H10.955C7.3325 38.5 4.375 35.5425 4.375 31.92V20.1425C4.375 16.52 7.3325 13.5625 10.955 13.5625H31.045C34.6675 13.5625 37.625 16.52 37.625 20.1425V22.6625H34.09C33.11 22.6625 32.2175 23.0475 31.57 23.7125Z" stroke="#253439" stroke-width="1.5" stroke-linecap="round" stroke-linejoin="round"/>
<path d="M4.375 21.7176V13.7201C4.375 11.6376 5.6525 9.78258 7.595 9.04758L21.49 3.79758C21.9935 3.60786 22.5354 3.54314 23.0694 3.60898C23.6034 3.67482 24.1134 3.86925 24.5557 4.17558C24.998 4.48191 25.3593 4.891 25.6087 5.36772C25.8581 5.84444 25.9881 6.37456 25.9875 6.91258V13.5626M12.25 21.0001H24.5M39.4782 24.4476V28.0526C39.4782 29.0151 38.7082 29.8026 37.7282 29.8376H34.2982C32.4082 29.8376 30.6757 28.4551 30.5182 26.5651C30.4132 25.4626 30.8332 24.4301 31.5682 23.7126C32.2157 23.0476 33.1082 22.6626 34.0882 22.6626H37.7282C38.7082 22.6976 39.4782 23.4851 39.4782 24.4476Z" stroke="#253439" stroke-width="1.5" stroke-linecap="round" stroke-linejoin="round"/>
</svg>
    