     <svg
                    width="19"
                    height="15"
                    viewBox="0 0 19 15"
                    fill="none"
                    xmlns="http://www.w3.org/2000/svg"
                    
                  >
                    <path
                      d="M15.6557 2.56148H13.5109C13.3572 2.56148 13.2207 2.46353 13.1721 2.31698L12.9462 1.63925C12.7024 0.907892 12.0211 0.416748 11.2504 0.416748H7.90745C7.13679 0.416748 6.45547 0.907892 6.21241 1.63854L5.98651 2.31698C5.93718 2.46353 5.80062 2.56148 5.64693 2.56148H3.5022C2.1224 2.56148 1 3.68391 1 5.06368V11.4979C1 12.8777 2.1224 14.0001 3.5022 14.0001H15.6557C17.0355 14.0001 18.1579 12.8777 18.1579 11.4979V5.06368C18.1579 3.68391 17.0355 2.56148 15.6557 2.56148ZM17.443 11.4979C17.443 12.483 16.6408 13.2852 15.6557 13.2852H3.5022C2.51706 13.2852 1.71493 12.483 1.71493 11.4979V5.06368C1.71493 4.07855 2.51706 3.27642 3.5022 3.27642H5.64693C6.10876 3.27642 6.5177 2.98188 6.66424 2.54362L6.89088 1.86444C7.03672 1.42621 7.44566 1.13165 7.90748 1.13165H11.2504C11.7122 1.13165 12.1212 1.42618 12.2677 1.86515L12.4936 2.54359C12.6402 2.98182 13.0491 3.27638 13.5109 3.27638H15.6557C16.6408 3.27638 17.4429 4.07851 17.4429 5.06365V11.4979H17.443Z"
                      fill="white"
                      stroke="white"
                      stroke-width="0.4"
                    />
                    <path
                      d="M9.57957 3.99121C7.21393 3.99121 5.2901 5.91504 5.2901 8.28068C5.2901 10.6463 7.21393 12.5701 9.57957 12.5701C11.9452 12.5701 13.869 10.6463 13.869 8.28068C13.869 5.91504 11.9452 3.99121 9.57957 3.99121ZM9.57957 11.8552C7.60856 11.8552 6.005 10.2517 6.005 8.28068C6.005 6.30967 7.60856 4.70611 9.57957 4.70611C11.5506 4.70611 13.1541 6.30967 13.1541 8.28068C13.1541 10.2517 11.5506 11.8552 9.57957 11.8552Z"
                      fill="white"
                      stroke="white"
                      stroke-width="0.4"
                    />
                    <path
                      d="M9.57707 5.42114C7.99999 5.42114 6.71744 6.70369 6.71744 8.28078C6.71744 8.47809 6.87759 8.63824 7.0749 8.63824C7.27222 8.63824 7.43234 8.47809 7.43234 8.28078C7.43234 7.09832 8.39462 6.13604 9.57707 6.13604C9.77439 6.13604 9.93454 5.97589 9.93454 5.77858C9.93454 5.58126 9.77439 5.42114 9.57707 5.42114Z"
                      fill="white"
                      stroke="white"
                      stroke-width="0.4"
                    />
                  </svg>