<svg width="24" height="24" viewBox="0 0 24 24" fill="none" xmlns="http://www.w3.org/2000/svg">
<path d="M3 3.75C3 3.33579 3.33579 3 3.75 3H4.30826C5.25873 3 5.82782 3.63899 6.15325 4.23299C6.37016 4.62894 6.52708 5.08818 6.64982 5.50395C6.68306 5.50134 6.71674 5.5 6.7508 5.5H19.2481C20.0783 5.5 20.6778 6.29442 20.4502 7.0928L18.6224 13.5019C18.2856 14.6832 17.2062 15.4978 15.9779 15.4978H10.0298C8.79128 15.4978 7.7056 14.6699 7.37783 13.4756L6.61734 10.7045L5.35874 6.45578L5.3567 6.44834C5.201 5.88051 5.05487 5.35005 4.83773 4.9537C4.62686 4.5688 4.45877 4.5 4.30826 4.5H3.75C3.33579 4.5 3 4.16421 3 3.75ZM8.07283 10.3403L8.82434 13.0786C8.97333 13.6215 9.46682 13.9978 10.0298 13.9978H15.9779C16.5362 13.9978 17.0268 13.6275 17.18 13.0906L18.9168 7H7.08549L8.05906 10.2868C8.06434 10.3046 8.06892 10.3224 8.07283 10.3403ZM11.5 18.5C11.5 19.6046 10.6046 20.5 9.5 20.5C8.39543 20.5 7.5 19.6046 7.5 18.5C7.5 17.3954 8.39543 16.5 9.5 16.5C10.6046 16.5 11.5 17.3954 11.5 18.5ZM10 18.5C10 18.2239 9.77614 18 9.5 18C9.22386 18 9 18.2239 9 18.5C9 18.7761 9.22386 19 9.5 19C9.77614 19 10 18.7761 10 18.5ZM18.5 18.5C18.5 19.6046 17.6046 20.5 16.5 20.5C15.3954 20.5 14.5 19.6046 14.5 18.5C14.5 17.3954 15.3954 16.5 16.5 16.5C17.6046 16.5 18.5 17.3954 18.5 18.5ZM17 18.5C17 18.2239 16.7761 18 16.5 18C16.2239 18 16 18.2239 16 18.5C16 18.7761 16.2239 19 16.5 19C16.7761 19 17 18.7761 17 18.5Z" fill="#253439"/>
</svg>
