<svg width="33" height="33" viewBox="0 0 33 33" fill="none" xmlns="http://www.w3.org/2000/svg">
<g filter="url(#filter0_d_388_1982)">
<circle cx="16.5" cy="12.5" r="12.5" fill="white"/>
</g>
<path fill-rule="evenodd" clip-rule="evenodd" d="M15.3644 15.6802C15.35 16.3949 14.776 16.9638 14.079 16.954C13.3821 16.9442 12.8235 16.3594 12.8282 15.6446C12.8329 14.9297 13.3991 14.3527 14.0961 14.3525C14.436 14.3561 14.7606 14.4979 14.9984 14.7469C15.2363 14.9959 15.3679 15.3316 15.3644 15.6802Z" stroke="#253439" stroke-linecap="round" stroke-linejoin="round"/>
<path fill-rule="evenodd" clip-rule="evenodd" d="M21.4064 15.6802C21.392 16.3949 20.8179 16.9638 20.121 16.954C19.4241 16.9442 18.8654 16.3594 18.8701 15.6446C18.8748 14.9297 19.4411 14.3527 20.1381 14.3525C20.478 14.3561 20.8025 14.4979 21.0404 14.7469C21.2782 14.9959 21.4099 15.3316 21.4064 15.6802Z" stroke="#253439" stroke-linecap="round" stroke-linejoin="round"/>
<path d="M18.7199 16.1383C18.9728 16.1383 19.1779 15.9332 19.1779 15.6803C19.1779 15.4273 18.9728 15.2222 18.7199 15.2222V16.1383ZM15.3651 15.2222C15.1122 15.2222 14.9071 15.4273 14.9071 15.6803C14.9071 15.9332 15.1122 16.1383 15.3651 16.1383V15.2222ZM18.2642 15.6803C18.2642 15.9332 18.4692 16.1383 18.7222 16.1383C18.9752 16.1383 19.1803 15.9332 19.1803 15.6803H18.2642ZM19.1803 12.4637C19.1803 12.2107 18.9752 12.0056 18.7222 12.0056C18.4692 12.0056 18.2642 12.2107 18.2642 12.4637H19.1803ZM18.7222 15.2222C18.4692 15.2222 18.2642 15.4273 18.2642 15.6803C18.2642 15.9332 18.4692 16.1383 18.7222 16.1383V15.2222ZM18.8717 16.1383C19.1246 16.1383 19.3297 15.9332 19.3297 15.6803C19.3297 15.4273 19.1246 15.2222 18.8717 15.2222V16.1383ZM21.3983 15.2224C21.1454 15.2278 20.9449 15.4373 20.9504 15.6902C20.9558 15.9431 21.1653 16.1437 21.4182 16.1382L21.3983 15.2224ZM22.7486 14.2506L23.2065 14.2425C23.2061 14.2189 23.2039 14.1954 23.1998 14.1721L22.7486 14.2506ZM22.889 12.3852C22.8457 12.136 22.6085 11.9691 22.3593 12.0124C22.11 12.0558 21.9432 12.2929 21.9865 12.5421L22.889 12.3852ZM18.7198 9.1463C18.4668 9.1463 18.2618 9.35137 18.2618 9.60433C18.2618 9.85729 18.4668 10.0624 18.7198 10.0624V9.1463ZM20.8462 9.60433V10.0624L20.8491 10.0624L20.8462 9.60433ZM22.1889 11.034L21.7313 11.0145C21.7299 11.0473 21.732 11.0802 21.7376 11.1126L22.1889 11.034ZM21.9865 12.5421C22.0298 12.7914 22.2671 12.9583 22.5163 12.9149C22.7656 12.8715 22.9325 12.6344 22.889 12.3852L21.9865 12.5421ZM19.1778 9.60433C19.1778 9.35137 18.9728 9.1463 18.7198 9.1463C18.4668 9.1463 18.2618 9.35137 18.2618 9.60433H19.1778ZM18.2618 12.4637C18.2618 12.7166 18.4668 12.9217 18.7198 12.9217C18.9728 12.9217 19.1778 12.7166 19.1778 12.4637H18.2618ZM18.2618 9.60433C18.2618 9.85729 18.4668 10.0624 18.7198 10.0624C18.9728 10.0624 19.1778 9.85729 19.1778 9.60433H18.2618ZM18.7198 9.11577L18.2618 9.11284V9.11577H18.7198ZM18.0863 8.45804L18.0889 8.00001H18.0863V8.45804ZM12.379 8.45804V8L12.3768 8.00001L12.379 8.45804ZM11.7449 9.11455H12.2029L12.2029 9.11246L11.7449 9.11455ZM11.7449 15.0231L12.2029 15.0252V15.0231H11.7449ZM12.379 15.6796L12.3768 16.1377H12.379V15.6796ZM12.8262 16.1377C13.0791 16.1377 13.2842 15.9326 13.2842 15.6796C13.2842 15.4267 13.0791 15.2216 12.8262 15.2216V16.1377ZM18.721 12.005C18.4681 12.005 18.263 12.2101 18.263 12.4631C18.263 12.716 18.4681 12.9211 18.721 12.9211V12.005ZM22.4389 12.9211C22.6919 12.9211 22.897 12.716 22.897 12.4631C22.897 12.2101 22.6919 12.005 22.4389 12.005V12.9211ZM8.45803 9.22142C8.20507 9.22142 8 9.42649 8 9.67945C8 9.93241 8.20507 10.1375 8.45803 10.1375V9.22142ZM10.3218 10.1375C10.5747 10.1375 10.7798 9.93241 10.7798 9.67945C10.7798 9.42649 10.5747 9.22142 10.3218 9.22142V10.1375ZM9.05347 11.0535C8.80051 11.0535 8.59544 11.2586 8.59544 11.5116C8.59544 11.7645 8.80051 11.9696 9.05347 11.9696V11.0535ZM10.2443 11.9696C10.4973 11.9696 10.7024 11.7645 10.7024 11.5116C10.7024 11.2586 10.4973 11.0535 10.2443 11.0535V11.9696ZM9.41669 12.8857C9.16373 12.8857 8.95866 13.0907 8.95866 13.3437C8.95866 13.5966 9.16373 13.8017 9.41669 13.8017V12.8857ZM10.2443 13.8017C10.4973 13.8017 10.7024 13.5966 10.7024 13.3437C10.7024 13.0907 10.4973 12.8857 10.2443 12.8857V13.8017ZM18.7199 15.2222H15.3651V16.1383H18.7199V15.2222ZM19.1803 15.6803V12.4637H18.2642V15.6803H19.1803ZM18.7222 16.1383H18.8717V15.2222H18.7222V16.1383ZM21.4182 16.1382C22.4357 16.1161 23.2244 15.2577 23.2065 14.2425L22.2906 14.2587C22.3 14.7913 21.8899 15.2117 21.3983 15.2224L21.4182 16.1382ZM23.1998 14.1721L22.889 12.3852L21.9865 12.5421L22.2973 14.3291L23.1998 14.1721ZM18.7198 10.0624L20.8462 10.0624V9.1463H18.7198V10.0624ZM20.8491 10.0624C21.0855 10.0608 21.3148 10.1587 21.4826 10.3374L22.1503 9.71024C21.8106 9.34851 21.3384 9.14311 20.8432 9.14632L20.8491 10.0624ZM21.4826 10.3374C21.6508 10.5165 21.7421 10.7611 21.7313 11.0145L22.6465 11.0535C22.6677 10.5572 22.4896 10.0715 22.1503 9.71024L21.4826 10.3374ZM21.7376 11.1126L21.9865 12.5421L22.889 12.3852L22.6401 10.9554L21.7376 11.1126ZM18.2618 9.60433V12.4637H19.1778V9.60433H18.2618ZM19.1778 9.60433V9.11577H18.2618V9.60433H19.1778ZM19.1778 9.1187C19.1797 8.82742 19.0688 8.54512 18.8658 8.33448L18.2061 8.96999C18.2408 9.00609 18.2621 9.05728 18.2618 9.11284L19.1778 9.1187ZM18.8658 8.33448C18.6626 8.12344 18.3834 8.00169 18.0889 8.00001L18.0837 8.91606C18.1274 8.91631 18.1717 8.93429 18.2061 8.96999L18.8658 8.33448ZM18.0863 8.00001L12.379 8V8.91607H18.0863V8.00001ZM12.3768 8.00001C12.0826 8.00142 11.8034 8.12275 11.5999 8.33337L12.2588 8.9698C12.2932 8.93419 12.3375 8.91627 12.3812 8.91606L12.3768 8.00001ZM11.5999 8.33337C11.3969 8.5436 11.2855 8.82554 11.2868 9.11664L12.2029 9.11246C12.2026 9.05693 12.224 9.00582 12.2588 8.9698L11.5999 8.33337ZM11.2868 9.11455V15.0231H12.2029L12.2029 9.11455H11.2868ZM11.2868 15.0211C11.2855 15.3121 11.3969 15.5941 11.5999 15.8043L12.2588 15.1679C12.224 15.1318 12.2026 15.0807 12.2029 15.0252L11.2868 15.0211ZM11.5999 15.8043C11.8034 16.0149 12.0826 16.1363 12.3768 16.1377L12.3812 15.2216C12.3375 15.2214 12.2932 15.2035 12.2588 15.1679L11.5999 15.8043ZM12.379 16.1377H12.8262V15.2216H12.379V16.1377ZM18.721 12.9211H22.4389V12.005H18.721V12.9211ZM8.45803 10.1375H10.3218V9.22142H8.45803V10.1375ZM9.05347 11.9696H10.2443V11.0535H9.05347V11.9696ZM9.41669 13.8017H10.2443V12.8857H9.41669V13.8017Z" fill="#253439"/>
<defs>
<filter id="filter0_d_388_1982" x="0" y="0" width="33" height="33" filterUnits="userSpaceOnUse" color-interpolation-filters="sRGB">
<feFlood flood-opacity="0" result="BackgroundImageFix"/>
<feColorMatrix in="SourceAlpha" type="matrix" values="0 0 0 0 0 0 0 0 0 0 0 0 0 0 0 0 0 0 127 0" result="hardAlpha"/>
<feOffset dy="4"/>
<feGaussianBlur stdDeviation="2"/>
<feComposite in2="hardAlpha" operator="out"/>
<feColorMatrix type="matrix" values="0 0 0 0 0 0 0 0 0 0 0 0 0 0 0 0 0 0 0.25 0"/>
<feBlend mode="normal" in2="BackgroundImageFix" result="effect1_dropShadow_388_1982"/>
<feBlend mode="normal" in="SourceGraphic" in2="effect1_dropShadow_388_1982" result="shape"/>
</filter>
</defs>
</svg>
