<svg width="313" height="312" viewBox="0 0 313 312" fill="none" xmlns="http://www.w3.org/2000/svg">
<path d="M197.027 299.477L203.295 303.496L205.47 306.691C205.47 306.691 203.24 307.806 201.988 308.121C200.736 308.43 190.8 307.369 190.8 307.369L190.531 301.552L197.027 299.477Z" fill="#273140"/>
<path d="M165.698 303.864L168.797 307.337C168.797 307.337 171.319 312.044 170.054 311.976C168.788 311.903 161.92 312.271 161.46 311.484C160.996 310.697 157.349 307.952 156.876 307.419C156.398 306.887 156.885 302.467 156.885 302.467L165.698 303.864Z" fill="#273140"/>
<path d="M183.417 211.457L175.633 258.787L165.701 303.868L156.852 303.363L158.559 255.782C158.559 255.782 152.182 212.053 152.159 199.121L183.417 211.457Z" fill="#263238"/>
<path d="M202.944 213.789L199.384 301.143L190.281 301.562L185.438 257.182L178.387 218.013L197.204 193.779L202.944 213.789Z" fill="#263238"/>
<path d="M198.173 167.797C193.398 144.564 199.461 133.367 189.01 126.907C189.01 126.907 171.986 122.233 161.144 130.012C160.993 130.121 160.843 130.23 160.697 130.34L156.756 138.528L153.765 175.275C153.765 175.275 145.399 223.52 149.841 223.907C154.871 224.348 177.967 213.588 182.351 213.838C186.734 214.093 200.148 216.497 212.811 212.186C223.667 208.499 202.943 191.029 198.173 167.797Z" fill="#3E6897"/>
<path d="M177.002 126.191L173.693 126.319L173.356 129.651L185.519 163.667L188.245 148.928L185.269 127.516L177.002 126.191Z" fill="white"/>
<path d="M187.002 176.74L182.313 213.778L192.195 215.176L199.032 214.643L190.388 182.512L187.002 176.74Z" fill="white"/>
<path d="M181.49 127.667C179.219 127.762 176.952 127.854 174.681 127.949C174.408 126.16 174.276 124.349 174.289 122.537C172.332 122.146 170.038 121.463 169.437 119.56C169.246 118.959 169.264 118.317 169.287 117.689C169.369 115.09 168.64 112.455 169.528 109.892C169.824 109.041 169.592 108.067 169.961 107.247C170.611 105.809 172.155 105.003 173.657 104.521C177.489 103.287 181.891 103.533 185.3 105.677C186.206 106.246 187.057 106.97 187.553 107.917C188.323 109.378 188.15 111.139 187.954 112.778C187.776 114.294 187.599 115.809 187.421 117.321C187.217 119.064 186.848 121.062 185.318 121.922C184.508 122.378 183.479 122.423 182.769 123.029C181.527 124.094 181.996 126.106 181.49 127.667Z" fill="#E7CAAD"/>
<path d="M191.245 93.9029C190.735 93.8574 190.216 93.7936 189.675 93.6116C187.977 93.038 186.707 91.7043 184.913 91.1854C181.281 90.1294 176.884 90.6984 173.552 92.4463C170.361 94.1168 165.896 95.0363 163.092 97.1529C161.922 98.0359 161.066 99.2831 160.447 100.617C158.308 105.228 159.114 111.054 162.423 114.91C163.165 115.774 164.016 116.539 164.899 117.263C166.724 118.756 168.918 120.613 171.19 120.941C170.967 118.983 168.327 113.089 169.597 111.277C171.285 108.878 174.972 108.623 177.631 108.646C180.799 108.674 183.302 107.445 186.452 107.335C188.054 107.281 189.889 107.449 191.027 106.316C192.342 105.005 195.014 100.976 195.583 99.2558C196.084 97.7537 195.515 96.0013 194.336 94.9407C193.33 94.0303 192.31 94.003 191.245 93.9029Z" fill="#263238"/>
<path d="M212.587 145.068L191.968 126.388L187.011 130.566L204.08 159.07L211.786 159.807C211.786 159.807 214.008 151.873 214.463 151.031L212.587 145.068Z" fill="#3E6897"/>
<path d="M163.563 212.93C159.612 209.365 154.956 207.695 149.73 207.963C144.505 208.232 140.044 210.371 136.48 214.322C132.911 218.278 131.241 222.934 131.514 228.155C131.782 233.381 133.922 237.842 137.873 241.406C139.438 242.817 141.118 243.932 142.898 244.747C145.606 245.985 148.551 246.527 151.706 246.367C156.936 246.099 161.392 243.959 164.956 240.004C168.515 236.057 170.186 231.401 169.922 226.171C169.653 220.95 167.514 216.489 163.563 212.93Z" fill="#F39AC8"/>
<path d="M169.928 226.175C169.655 220.945 167.515 216.489 163.569 212.929C162.294 211.778 160.942 210.831 159.527 210.075C161.689 213.02 162.886 216.42 163.082 220.23C163.346 225.465 161.675 230.117 158.116 234.063C154.552 238.014 150.095 240.154 144.865 240.427C141.711 240.586 138.766 240.044 136.058 238.806C135.725 238.656 135.398 238.488 135.07 238.315C135.875 239.407 136.804 240.445 137.878 241.41C139.444 242.821 141.124 243.936 142.904 244.751C145.612 245.989 148.557 246.531 151.711 246.371C156.941 246.103 161.398 243.964 164.962 240.008C168.521 236.066 170.192 231.41 169.928 226.175Z" fill="#F384BE"/>
<path d="M312.611 143.573C311.164 127.7 303.189 113.121 288.914 100.244C274.64 87.3713 259.259 80.8758 243.187 80.935C229.217 80.9896 216.631 86.1605 205.775 96.3111C203.945 98.0225 202.907 100.44 202.93 102.943C202.953 105.447 204.032 107.845 205.889 109.525L214.387 117.19C217.778 120.249 222.922 120.267 226.349 117.231C232.426 111.846 238.758 109.202 245.708 109.152C254.12 109.088 262.536 112.802 270.725 120.185C278.887 127.546 283.311 135.589 283.88 144.078C284.435 152.54 281.058 160.892 273.843 168.895C263.893 179.924 254.034 184.507 244.529 182.514C234.524 180.411 222.526 172.968 208.843 160.383L205.165 157.064C201.492 153.751 195.811 154.046 192.502 157.715L163.607 189.751C162.005 191.531 161.185 193.825 161.313 196.219C161.436 198.613 162.483 200.812 164.262 202.414L172.883 210.189C173.58 210.817 174.345 211.313 175.155 211.682C178.623 213.266 182.866 212.51 185.551 209.533L204.264 188.786C204.496 188.527 204.896 188.504 205.156 188.722C221.611 202.783 237.174 210.348 251.407 211.208C266.547 212.119 281.062 205 294.549 190.047C307.982 175.167 314.059 159.527 312.611 143.573Z" fill="#F39AC8"/>
<path d="M312.611 143.574C311.164 127.702 303.189 113.122 288.914 100.245C280.079 92.2749 270.812 86.7535 261.225 83.7129C265.741 86.4349 270.165 89.7486 274.489 93.645C288.764 106.522 296.739 121.097 298.186 136.974C299.634 152.928 293.557 168.568 280.125 183.462C266.638 198.415 252.122 205.534 236.982 204.623C232.608 204.359 228.111 203.462 223.504 201.938C233.245 207.577 242.586 210.691 251.412 211.223C266.551 212.134 281.067 205.015 294.554 190.062C307.982 175.168 314.059 159.528 312.611 143.574Z" fill="#F384BE"/>
<path d="M164.758 127.948L154.99 130.957L131.611 170.808L133.204 178.515L163.488 193.654L167.739 185.42L148.612 170.808L160.302 154.868L164.817 129.364L164.758 127.948Z" fill="#3E6897"/>
<path d="M191.569 126.727L186.605 121.395L181.819 122.724L180.494 127.51L184.743 128.307L188.741 129.113L191.569 126.727Z" fill="#EAC1A4"/>
<path d="M167.321 186.236L172.093 187.215L171.328 190.03L175.463 194.866L169.793 196.929L164.242 192.197L167.321 186.236Z" fill="#E7CAAD"/>
</svg>
