<svg width="198" height="176" viewBox="0 0 198 176" fill="none" xmlns="http://www.w3.org/2000/svg">
<path d="M44.6165 163.963C42.1788 164.335 40.0454 162.305 40.2959 159.852L44.6165 117.699L52.3163 116.521L47.7961 160.621C47.622 162.329 46.3139 163.704 44.6165 163.963Z" fill="#152E60"/>
<path d="M22.955 175.992C20.0543 176.201 18.6967 172.436 19.3861 171.268C19.7244 170.05 36.6529 109.198 36.6529 109.198H44.3569L26.5309 173.277C26.0836 174.881 24.6212 175.992 22.955 175.992Z" fill="#152E60"/>
<path d="M90.4576 175.991C92.9124 175.991 94.6904 173.651 94.0322 171.286L76.7597 109.196H69.0557L86.8817 173.275C87.329 174.88 88.7914 175.991 90.4576 175.991Z" fill="#152E60"/>
<path d="M114.912 88.7301C107.885 22.2323 -5.3256 13.0631 0.195474 89.3884C7.22422 155.883 120.434 165.053 114.912 88.7301Z" fill="#3E6897"/>
<path d="M67.1928 138.582C-2.90928 140.062 -26.262 34.0842 53.7029 29.8131C123.804 28.3366 147.156 134.313 67.1928 138.582Z" fill="#5E90C9"/>
<path d="M65.7101 126.629C11.0175 127.783 -7.20205 45.1012 55.1861 41.7688C109.876 40.6164 128.095 123.298 65.7101 126.629Z" fill="white"/>
<path d="M64.2257 114.676C24.9425 115.505 11.8562 56.1183 56.6661 53.7244C95.9492 52.8962 109.036 112.283 64.2257 114.676Z" fill="#5E90C9"/>
<path d="M62.7459 102.72C38.8722 103.224 30.9191 67.1333 58.1521 65.6781C82.0244 65.1755 89.9775 101.266 62.7459 102.72Z" fill="white"/>
<path d="M67.3734 84.1604C68.0473 93.3777 54.3621 92.2693 53.5226 84.2396C52.8488 75.0209 66.5339 76.1293 67.3734 84.1604Z" fill="#5E90C9"/>
<path d="M60.4453 30.1455C60.4453 30.1455 78.8871 92.7927 117.863 96.0558C121.599 83.7551 106.987 33.8305 60.4453 30.1455Z" fill="#3E6897"/>
<path d="M191.051 130.499L187.041 130.152L187.68 123.935L192.675 124.831C197.482 127.791 194.357 129.626 191.051 130.499Z" fill="#F4D2C6"/>
<path d="M195.415 139.894L197.7 124.173C195.271 123.421 192.68 123.699 190.299 124.5C194.442 125.012 193.325 128.886 190.968 130.358C190.968 130.358 191.44 139.131 195.415 139.894Z" fill="#152E60"/>
<path d="M151.185 116.308L145.706 65.6582L123.509 68.2659L137.334 118.894C138.15 121.883 139.957 124.504 142.459 126.332C146.264 130.893 182.42 129.523 188.022 130.511L189.21 124.006L151.185 116.308Z" fill="#263238"/>
<path d="M133.902 66.6621L130.224 125.68L130.157 125.699L141.903 163.963L135.619 166.878L120.475 135.806C114.497 127.385 113.808 81.5648 112.277 71.3578L133.902 66.6621Z" fill="#263238"/>
<mask id="mask0_532_1031" style="mask-type:luminance" maskUnits="userSpaceOnUse" x="112" y="66" width="30" height="101">
<path d="M133.902 66.6621L130.224 125.68L130.157 125.699L141.903 163.963L135.619 166.878L120.475 135.806C114.497 127.385 113.808 81.5648 112.277 71.3578L133.902 66.6621Z" fill="white"/>
</mask>
<g mask="url(#mask0_532_1031)">
<path d="M140.013 165.376C139.773 165.485 139.628 165.55 139.628 165.55C139.628 165.55 125.2 131.403 124.444 128.971C123.688 126.539 131.88 99.1133 131.88 99.1133L133.088 123.257L144.59 163.301C144.59 163.302 141.18 164.848 140.013 165.376Z" fill="#263238"/>
</g>
<path d="M100.668 40.5196L92.0434 43.9611L69.475 28.3506L66.8164 33.2941L86.0071 52.9519C87.2076 54.134 88.7252 54.9409 90.3758 55.2778C93.8881 56.4302 102.756 51.6891 106.068 50.7605L100.668 40.5196Z" fill="#F4D2C6"/>
<mask id="mask1_532_1031" style="mask-type:luminance" maskUnits="userSpaceOnUse" x="66" y="28" width="41" height="28">
<path d="M100.668 40.5196L92.0434 43.9611L69.475 28.3506L66.8164 33.2941L86.0071 52.9519C87.2076 54.134 88.7252 54.9409 90.3758 55.2778C93.8881 56.4302 102.756 51.6891 106.068 50.7605L100.668 40.5196Z" fill="white"/>
</mask>
<g mask="url(#mask1_532_1031)">
<path d="M94.3545 41.9007L96.1609 57.9004L106.921 52.0099L99.4594 38.8584L94.3545 41.9007Z" fill="#F4D2C6"/>
</g>
<path d="M122.643 4.02879C122.551 9.40122 114.559 9.3998 114.469 4.02879C114.561 -1.34364 122.552 -1.34222 122.643 4.02879Z" fill="#263238"/>
<path d="M111.769 7.61621C105.052 10.1814 104.227 17.1309 110.054 21.2264C111.943 19.0165 117.801 10.9883 111.769 7.61621Z" fill="#263238"/>
<path d="M124.244 15.4797C126.406 27.6232 111.649 30.4857 109.112 18.4158C106.951 6.2751 121.708 3.41122 124.244 15.4797Z" fill="#F4D2C6"/>
<mask id="mask2_532_1031" style="mask-type:luminance" maskUnits="userSpaceOnUse" x="108" y="7" width="17" height="20">
<path d="M124.244 15.4797C126.406 27.6232 111.649 30.4857 109.112 18.4158C106.951 6.2751 121.708 3.41122 124.244 15.4797Z" fill="white"/>
</mask>
<g mask="url(#mask2_532_1031)">
<path d="M108.2 14.4595C119.228 19.7286 124.882 11.6749 114.28 4.56543C111.737 7.38684 108.96 10.6344 108.2 14.4595Z" fill="#F4D2C6"/>
</g>
<path d="M124.111 14.877C124.111 14.877 126.128 29.2289 128.444 33.1489C128.444 33.1489 124.01 35.4904 119.095 34.9637C119.095 34.9637 119.667 22.2653 118.556 19.5925L124.111 14.877Z" fill="#F4D2C6"/>
<path d="M119.222 25.9572C119.222 25.9572 120.824 25.6217 122.605 23.4883C122.605 23.4883 122.89 27.4125 119.242 28.3497L119.222 25.9572Z" fill="#F4D2C6"/>
<path d="M110.986 10.1216C110.986 10.1216 111.457 14.6786 117.16 15.3086L114.928 13.1384C114.928 13.1384 118.71 16.2655 121.81 16.9493C124.91 17.6331 125.029 20.4998 125.029 20.4998C134.152 8.42704 112.556 -0.944622 110.986 10.1216Z" fill="#263238"/>
<path d="M148.911 46.6844L135.043 33.5075C131.272 29.4841 124.72 28.0855 119.533 30.4312C119.077 30.6393 97.9034 40.3182 97.4009 40.5475L104.302 53.6296L110.724 51.0022L109.445 75.9815C131.164 87.3959 148.44 71.0097 148.44 71.0097L142.412 51.9223L148.911 46.6844Z" fill="#EE7BB7"/>
<path d="M142.41 51.9197L137.758 55.7902L130.343 47.9092L146.462 72.6252L148.438 71.0071L142.41 51.9197Z" fill="#EE7BB7"/>
<path d="M110.607 51.0486C110.607 51.0486 110.83 44.5069 112.141 38.8584C112.141 38.8584 105.331 44.5125 104.299 53.6294L110.607 51.0486Z" fill="#EE7BB7"/>
<path d="M116.679 31.7349C120.18 29.0933 126.429 28.1971 130.342 30.3277C127.709 31.9345 119.053 37.0733 116.679 31.7349Z" fill="#F4D2C6"/>
<path d="M69.8153 28.6212C69.2491 28.212 68.8428 27.6189 68.6672 26.9422C68.0896 24.7267 66.7037 19.711 65.8968 19.3429C64.8591 18.8687 66.6712 29.2511 65.5627 28.573C64.7445 28.0733 63.7931 26.0404 62.7696 25.9795C61.7461 25.9187 62.2515 27.885 63.1065 29.7593C63.6544 30.9612 68.0769 34.3164 68.0769 34.3164L71.0724 29.53L69.8153 28.6212Z" fill="#F4D2C6"/>
<path d="M137.987 170.217L136.235 166.593L141.905 163.963L143.688 168.712C143.602 174.359 140.428 172.613 137.987 170.217Z" fill="#F4D2C6"/>
<path d="M129.19 175.993H144.876C145.781 175.993 146.391 175.07 146.037 174.237L143.688 168.715C143.776 172.887 139.782 172.339 137.987 170.218C137.987 170.218 129.373 171.95 129.19 175.993Z" fill="#152E60"/>
<path d="M188.522 75.663C188.522 75.663 191.875 75.5229 192.297 74.8193C192.719 74.1157 184.732 73.6386 184.732 73.6386C179.648 70.1774 150.285 52.8921 147.414 47.8906L138.808 54.9264L147.255 62.2681C154.029 64.8828 182.74 78.9912 189.211 81.0765C192.03 81.286 193.423 79.6 193.705 79.2475C193.985 78.8964 188.522 75.663 188.522 75.663Z" fill="#F4D2C6"/>
<mask id="mask3_532_1031" style="mask-type:luminance" maskUnits="userSpaceOnUse" x="138" y="47" width="56" height="35">
<path d="M188.522 75.663C188.522 75.663 191.875 75.5229 192.297 74.8193C192.719 74.1157 184.732 73.6386 184.732 73.6386C179.648 70.1774 150.285 52.8921 147.414 47.8906L138.808 54.9264L147.255 62.2681C154.029 64.8828 182.74 78.9912 189.211 81.0765C192.03 81.286 193.423 79.6 193.705 79.2475C193.985 78.8964 188.522 75.663 188.522 75.663Z" fill="white"/>
</mask>
<g mask="url(#mask3_532_1031)">
<path d="M149.515 49.112L143.282 60.5491L136.371 54.316L146.844 46.166L149.515 49.112Z" fill="#F4D2C6"/>
</g>
<path d="M127.092 80.0228C127.092 80.0228 137.626 79.3617 146.461 72.626L147.534 82.5497C147.534 82.5497 134.505 85.4476 127.092 80.0228Z" fill="#EE7BB7" fill-opacity="0.35"/>
<path d="M79.6212 65.4076L90.1509 55.406L87.8759 46.5439L77.1792 56.7041L79.6212 65.4076Z" fill="#4292F3"/>
<path d="M80.2798 66.1018L90.8095 56.1016L99.5427 58.8295L88.8459 68.9897L80.2798 66.1018Z" fill="#4292F3"/>
<path d="M91.2338 56.5639L89.7188 54.9688L59.5039 83.6668L61.019 85.262L91.2338 56.5639Z" fill="#152E60"/>
</svg>
