<svg width="33" height="39" viewBox="0 0 33 39" fill="none" xmlns="http://www.w3.org/2000/svg">
<path fill-rule="evenodd" clip-rule="evenodd" d="M30.0289 32.7819C31.1439 31.0653 31.5597 30.1879 32.4102 28.2615C26.1357 25.8583 25.1341 16.8365 31.3329 13.3842C29.4431 10.9809 26.7783 9.58852 24.2648 9.58852C22.4505 9.58852 21.2031 10.0654 20.0881 10.5041C19.1432 10.8665 18.2927 11.1907 17.2344 11.1907C16.1004 11.1907 15.0988 10.8283 14.0405 10.4468C12.8876 10.0272 11.6781 9.58852 10.1662 9.58852C7.35026 9.58852 4.34534 11.3242 2.43655 14.2997C-0.247088 18.4959 0.225383 26.3542 4.55323 33.068C6.10293 35.4713 8.18181 38.1607 10.8844 38.1988C12.0183 38.2179 12.7553 37.8746 13.568 37.5122C14.494 37.0926 15.4957 36.6348 17.2533 36.6348C19.0109 36.6157 19.9936 37.0926 20.9197 37.5122C21.7134 37.8746 22.4316 38.2179 23.5466 38.1988C26.2869 38.1607 28.4792 35.1852 30.0289 32.7819ZM23.8679 0.0517578C24.1703 2.14985 23.3198 4.22886 22.2048 5.67845C21.0142 7.24248 18.9353 8.46319 16.932 8.38689C16.5729 6.3651 17.499 4.28608 18.6329 2.89371C19.8991 1.36783 22.0347 0.185273 23.8679 0.0517578Z" fill="#334145"/>
</svg>
