<svg width="56" height="58" viewBox="0 0 56 58" fill="none" xmlns="http://www.w3.org/2000/svg">
<g id="Group 1024">
<path id="Vector" d="M27.7014 41.211C22.5768 41.211 17.4513 41.2618 12.3278 41.1858C7.48818 41.2197 1.02508 40.5924 0.912055 34.3971C0.582852 28.1612 -0.658619 21.8532 0.453894 15.6371C1.22869 10.8028 5.91383 9.52298 10.2042 9.69226C18.0303 9.68545 25.8474 9.46022 33.6622 9.04133C39.894 9.35513 52.2151 6.15376 54.8642 13.69C55.851 16.9884 55.6883 20.4747 55.9781 23.8742C56.086 29.9268 56.088 39.3433 48.553 40.707C41.6555 41.923 34.6588 41.1123 27.7011 41.342C27.7014 41.2983 27.7014 41.2547 27.7014 41.211ZM23.8996 37.5204C23.8995 37.5194 23.8995 37.5184 23.8994 37.5174C31.0163 37.5174 38.1331 37.5226 45.25 37.5148C50.1926 37.7106 52.5537 32.4967 52.3309 28.2092C52.6199 23.2217 52.0761 18.2405 50.6651 13.4392C49.6385 12.0798 45.7822 11.9611 44.1314 11.9546C32.3154 12.3969 20.4972 12.8552 8.67394 13.071C7.21044 13.2779 5.24847 13.256 4.50531 14.7967C3.72086 16.289 3.60342 17.9213 3.63731 19.5296C3.70755 22.8588 3.89478 26.1867 4.09218 29.5116C4.19458 31.2373 4.40433 32.9575 4.59724 34.6766C4.74393 35.9836 5.53391 36.7922 6.78303 37.0467C12.4164 38.0226 18.2049 37.3303 23.8996 37.5204Z" fill="white"/>
<path id="Vector_2" d="M29.9974 51.5505C29.9766 52.983 30.0434 54.4225 29.9654 55.8521C29.7218 58.0673 26.6014 57.9401 26.529 55.7179C26.401 53.0392 26.3862 50.3564 26.3224 47.6757C26.2951 46.4748 26.8935 45.5952 27.8473 45.4549C30.9779 45.2268 29.7674 49.5887 29.9823 51.5505C29.9874 51.5505 29.9924 51.5505 29.9974 51.5505Z" fill="white"/>
<path id="Vector_3" d="M19.3437 7.79364C18.405 7.53124 17.6834 6.96319 17.0113 6.27876C15.9498 5.31733 14.9013 4.34139 13.8308 3.39014C11.7273 1.84211 13.9721 -1.27129 16.0911 0.560382C17.6634 2.06659 19.4144 3.47085 20.7363 5.20647C21.4124 6.32431 20.6576 7.68698 19.3437 7.79364Z" fill="white"/>
<path id="Vector_4" d="M35.9809 43.4111C37.9473 44.1565 39.3714 45.8229 41.0271 47.0692C42.7967 48.444 40.8439 50.9472 39.069 49.6289C37.6878 48.6541 36.3324 47.6406 34.9962 46.6046C33.6214 45.5549 34.3048 43.5551 35.9809 43.4111Z" fill="white"/>
<path id="Vector_5" d="M37.3677 7.10104C35.6231 6.99079 35.2219 4.8991 36.5458 3.97463C37.735 2.99211 38.9483 2.03838 40.1594 1.08249C40.6849 0.667713 41.2773 0.485345 41.9347 0.713715C43.1953 1.15168 43.4452 2.71811 42.3664 3.64206C40.7557 4.85317 39.2729 6.37105 37.3677 7.10104Z" fill="white"/>
<path id="Vector_6" d="M18.4555 43.9307C22.9107 45.0528 17.8758 49.0412 15.7091 49.7075C14.9718 50.0141 14.185 49.5844 13.7996 48.9198C13.42 48.265 13.4515 47.3749 14.0591 46.8614C15.1788 45.9152 16.3717 45.0536 17.5606 44.1934C17.798 44.0216 18.1542 44.014 18.4555 43.9307Z" fill="white"/>
<path id="Vector_7" d="M19.7255 23.7759C23.1785 27.3917 20.4261 32.6045 16.1051 32.6065C14.1284 32.4973 10.7796 33.0752 10.5357 30.3127C10.4632 26.8166 10.4394 23.318 10.1997 19.828C10.5809 11.2963 24.9764 16.8857 19.7255 23.7759ZM13.0086 25.6857C13.263 29.7521 11.771 29.4633 16.2382 29.568C18.4106 29.6361 19.2757 26.1075 16.9212 25.7133C15.6799 25.5922 14.4176 25.6857 13.0086 25.6857ZM13.1114 22.707C14.3144 22.5619 15.4512 22.4471 16.579 22.2737C20.0839 21.1094 15.9663 17.583 13.7971 18.6748C13.5258 18.7781 13.1574 19.088 13.1423 19.3226C13.0724 20.4067 13.1114 21.4977 13.1114 22.707Z" fill="white"/>
<path id="Vector_8" d="M21.7581 24.0421C21.9775 22.0528 21.9116 19.5413 22.4533 17.4122C22.852 15.5825 25.198 15.9866 25.0473 17.8187C25.1487 20.9238 23.7934 27.7871 26.5122 29.7247C27.406 30.3947 28.1191 30.3273 28.8706 29.5007C31.1842 26.355 30.3147 22.0899 30.2015 18.4433C30.0867 16.1914 33.1192 16.191 33.1368 18.4017C33.3222 22.7988 34.0111 27.8466 30.9719 31.4829C27.6039 35.5055 22.0463 31.3885 21.9497 27.0142C21.8433 26.1111 21.8291 25.1971 21.7581 24.0421Z" fill="white"/>
<path id="Vector_9" d="M39.7055 22.0267C41.1213 20.1289 42.0139 18.1701 43.3801 16.3075C44.6024 15.1605 46.287 16.7593 45.406 18.1106C44.0264 20.1379 43.0286 22.5188 41.3481 24.3049C40.9001 24.6396 40.8373 25.0367 40.8276 25.5488C40.7871 27.6705 40.7128 29.7918 40.6244 31.9123C40.5884 32.7733 40.021 33.3089 39.2535 33.2903C38.5114 33.2724 37.9262 32.6716 37.9411 31.8379C37.9767 29.8465 38.0396 27.8552 38.1212 25.865C38.1486 25.1967 38.0195 24.6658 37.6157 24.0704C36.3113 22.1464 35.1342 20.1361 33.9097 18.1581C32.7823 16.3582 34.9722 14.6521 36.2443 16.5126C37.4541 18.3718 38.4621 20.0786 39.7055 22.0267Z" fill="white"/>
</g>
</svg>
