<svg width="52" height="52" viewBox="0 0 52 52" fill="none" xmlns="http://www.w3.org/2000/svg">
<path d="M35.7081 25.2082C36.7203 24.1895 36.7151 22.5432 35.6967 21.531C34.678 20.519 33.0317 20.5242 32.0198 21.5427L35.7081 25.2082Z" fill="white"/>
<path d="M32.0209 21.5428L28.6698 24.9147L28.5998 2.5918L23.3998 2.6081L23.4698 24.9311L20.0979 21.5802C19.0794 20.568 17.4331 20.5731 16.4209 21.5916C15.4087 22.6101 15.4139 24.2564 16.4325 25.2686L16.439 25.2751L16.4416 25.2777L26.1012 34.8769L35.6734 25.2441L35.688 25.2296L35.69 25.2275L35.6921 25.2254L35.7075 25.2101L32.0209 21.5428Z" fill="white"/>
<path d="M23.4 2.60815C23.3956 1.17222 24.556 0.00451103 25.992 1.30324e-05C27.428 -0.00448497 28.5956 1.15592 28.6 2.59185L23.4 2.60815Z" fill="white"/>
<path d="M5.2 25.9752C5.2 23.1032 7.52812 20.7752 10.4 20.7752C11.8359 20.7752 13 19.6111 13 18.1752C13 16.7392 11.8359 15.5752 10.4 15.5752C4.65624 15.5752 0 20.2314 0 25.9752V41.5752C0 47.3189 4.65624 51.9752 10.4 51.9752H39C46.1796 51.9752 52 46.1548 52 38.9752V25.9752C52 20.2314 47.3437 15.5752 41.6 15.5752C40.164 15.5752 39 16.7392 39 18.1752C39 19.6111 40.164 20.7752 41.6 20.7752C44.472 20.7752 46.8 23.1032 46.8 25.9752V38.9752C46.8 43.2831 43.3079 46.7752 39 46.7752H10.4C7.52812 46.7752 5.2 44.4472 5.2 41.5752V25.9752Z" fill="white"/>
</svg>
