<svg width="40" height="40" viewBox="0 0 40 40" fill="none" xmlns="http://www.w3.org/2000/svg">
<g filter="url(#filter0_d_532_126)">
<circle cx="20" cy="16" r="16" fill="#253439"/>
</g>
<path d="M19.3591 5.84158C19.1353 5.71947 18.8647 5.71947 18.6409 5.84158L10.8298 10.1022C10.3183 10.3812 10 10.9173 10 11.5V19.75C10 21.5449 11.4551 23 13.25 23H24.75C26.5449 23 28 21.5449 28 19.75V11.5C28 10.9173 27.6817 10.3812 27.1702 10.1022L19.3591 5.84158ZM19 15.1457L11.8579 11.25L19 7.35432L26.1421 11.25L19 15.1457ZM19.3591 16.6584L26.5 12.7634V19.75C26.5 20.7165 25.7165 21.5 24.75 21.5H13.25C12.2835 21.5 11.5 20.7165 11.5 19.75V12.7634L18.6409 16.6584C18.8647 16.7805 19.1353 16.7805 19.3591 16.6584ZM29.001 11.5113C29.9028 12.0889 30.5005 13.0996 30.5005 14.25V20.25C30.5005 23.1495 28.15 25.5 25.2505 25.5H16.2505C15.1001 25.5 14.0893 24.9023 13.5117 24.0005L25.2505 24C27.3215 24 29.0005 22.3211 29.0005 20.25L29.001 11.5113Z" fill="white"/>
<defs>
<filter id="filter0_d_532_126" x="0" y="0" width="40" height="40" filterUnits="userSpaceOnUse" color-interpolation-filters="sRGB">
<feFlood flood-opacity="0" result="BackgroundImageFix"/>
<feColorMatrix in="SourceAlpha" type="matrix" values="0 0 0 0 0 0 0 0 0 0 0 0 0 0 0 0 0 0 127 0" result="hardAlpha"/>
<feOffset dy="4"/>
<feGaussianBlur stdDeviation="2"/>
<feComposite in2="hardAlpha" operator="out"/>
<feColorMatrix type="matrix" values="0 0 0 0 0 0 0 0 0 0 0 0 0 0 0 0 0 0 0.1 0"/>
<feBlend mode="normal" in2="BackgroundImageFix" result="effect1_dropShadow_532_126"/>
<feBlend mode="normal" in="SourceGraphic" in2="effect1_dropShadow_532_126" result="shape"/>
</filter>
</defs>
</svg>
