<svg width="266" height="266" viewBox="0 0 266 266" fill="none" xmlns="http://www.w3.org/2000/svg">
<path d="M167.538 254.505L172.868 257.923L174.718 260.64C174.718 260.64 172.821 261.588 171.757 261.855C170.692 262.118 162.243 261.216 162.243 261.216L162.015 256.27L167.538 254.505Z" fill="#273140"/>
<path d="M140.9 258.236L143.536 261.189C143.536 261.189 145.681 265.191 144.605 265.133C143.529 265.072 137.688 265.385 137.297 264.715C136.902 264.046 133.802 261.712 133.399 261.259C132.993 260.806 133.407 257.048 133.407 257.048L140.9 258.236Z" fill="#273140"/>
<path d="M155.964 179.659L149.345 219.905L140.9 258.239L133.375 257.809L134.827 217.351C134.827 217.351 129.404 180.166 129.385 169.17L155.964 179.659Z" fill="#263238"/>
<path d="M172.568 181.641L169.541 255.921L161.8 256.277L157.682 218.539L151.687 185.233L167.687 164.626L172.568 181.641Z" fill="#263238"/>
<path d="M168.512 142.533C164.452 122.777 169.607 113.256 160.72 107.763C160.72 107.763 146.245 103.788 137.025 110.403C136.897 110.496 136.769 110.589 136.646 110.682L133.294 117.645L130.751 148.892C130.751 148.892 123.637 189.916 127.414 190.245C131.691 190.62 151.33 181.47 155.058 181.683C158.785 181.9 170.192 183.944 180.959 180.278C190.191 177.143 172.568 162.288 168.512 142.533Z" fill="#3E6897"/>
<path d="M150.51 107.156L147.697 107.265L147.41 110.098L157.752 139.022L160.071 126.49L157.539 108.283L150.51 107.156Z" fill="white"/>
<path d="M159.014 150.139L155.027 181.633L163.43 182.822L169.244 182.369L161.894 155.047L159.014 150.139Z" fill="white"/>
<path d="M154.327 108.411C152.395 108.492 150.468 108.569 148.536 108.651C148.304 107.129 148.192 105.589 148.203 104.049C146.539 103.716 144.588 103.135 144.077 101.517C143.915 101.006 143.93 100.461 143.95 99.9264C144.019 97.7163 143.4 95.4753 144.155 93.2961C144.406 92.5724 144.209 91.7441 144.523 91.0474C145.076 89.8243 146.388 89.1392 147.665 88.7289C150.924 87.68 154.667 87.889 157.566 89.712C158.337 90.1958 159.06 90.8113 159.482 91.6163C160.136 92.8588 159.989 94.3567 159.823 95.7501C159.672 97.039 159.521 98.3279 159.37 99.6129C159.196 101.095 158.882 102.794 157.582 103.526C156.893 103.913 156.018 103.952 155.414 104.467C154.358 105.372 154.756 107.083 154.327 108.411Z" fill="#E7CAAD"/>
<path d="M162.621 79.6989C162.187 79.6602 161.746 79.606 161.286 79.4512C159.842 78.9635 158.762 77.8294 157.237 77.3882C154.148 76.4902 150.409 76.974 147.576 78.4603C144.863 79.8808 141.066 80.6626 138.682 82.4625C137.687 83.2133 136.959 84.2739 136.433 85.4079C134.614 89.3288 135.299 94.2831 138.113 97.5615C138.743 98.2969 139.467 98.9471 140.218 99.5625C141.77 100.832 143.636 102.411 145.567 102.69C145.378 101.026 143.133 96.0132 144.213 94.4728C145.649 92.433 148.784 92.2162 151.044 92.2356C153.738 92.2588 155.867 91.2138 158.545 91.1209C159.908 91.0744 161.467 91.2176 162.435 90.2539C163.554 89.1391 165.826 85.7137 166.31 84.2506C166.735 82.9734 166.251 81.4832 165.249 80.5814C164.394 79.8073 163.527 79.784 162.621 79.6989Z" fill="#263238"/>
<path d="M180.769 123.207L163.236 107.322L159.021 110.875L173.535 135.113L180.088 135.74C180.088 135.74 181.977 128.993 182.364 128.277L180.769 123.207Z" fill="#3E6897"/>
<path d="M139.081 180.91C135.721 177.879 131.762 176.458 127.318 176.687C122.875 176.915 119.082 178.734 116.051 182.094C113.016 185.457 111.596 189.417 111.828 193.857C112.057 198.3 113.876 202.093 117.235 205.124C118.567 206.324 119.995 207.272 121.508 207.965C123.811 209.018 126.316 209.478 128.998 209.343C133.445 209.114 137.234 207.295 140.265 203.932C143.292 200.576 144.712 196.616 144.488 192.169C144.26 187.73 142.44 183.936 139.081 180.91Z" fill="#EFCD76"/>
<path d="M144.491 192.174C144.259 187.726 142.44 183.937 139.084 180.91C138 179.931 136.851 179.126 135.647 178.483C137.486 180.988 138.504 183.879 138.67 187.119C138.894 191.57 137.474 195.525 134.447 198.881C131.417 202.241 127.627 204.06 123.18 204.292C120.498 204.428 117.993 203.967 115.69 202.914C115.408 202.787 115.129 202.643 114.851 202.496C115.536 203.425 116.325 204.308 117.239 205.128C118.57 206.328 119.998 207.276 121.512 207.969C123.815 209.022 126.319 209.483 129.001 209.347C133.449 209.119 137.238 207.3 140.268 203.936C143.295 200.584 144.716 196.625 144.491 192.174Z" fill="#DC8D39"/>
<path d="M265.822 121.935C264.592 108.438 257.81 96.0409 245.672 85.0911C233.534 74.1452 220.456 68.6219 206.789 68.6722C194.91 68.7187 184.208 73.1156 174.977 81.7469C173.421 83.2023 172.538 85.2575 172.558 87.3863C172.577 89.5151 173.494 91.5549 175.073 92.9831L182.3 99.5012C185.183 102.102 189.557 102.118 192.472 99.536C197.639 94.9571 203.023 92.7083 208.933 92.6658C216.086 92.6116 223.243 95.7699 230.206 102.048C237.146 108.307 240.908 115.146 241.392 122.365C241.864 129.56 238.992 136.662 232.857 143.467C224.396 152.845 216.012 156.743 207.931 155.047C199.423 153.259 189.22 146.931 177.585 136.229L174.458 133.407C171.335 130.589 166.504 130.841 163.69 133.961L139.12 161.202C137.758 162.715 137.061 164.666 137.169 166.702C137.274 168.738 138.164 170.607 139.677 171.969L147.008 178.58C147.6 179.115 148.251 179.536 148.94 179.85C151.889 181.197 155.496 180.554 157.78 178.023L173.692 160.381C173.889 160.16 174.23 160.141 174.45 160.327C188.442 172.283 201.676 178.716 213.779 179.447C226.652 180.221 238.996 174.168 250.464 161.453C261.886 148.8 267.053 135.501 265.822 121.935Z" fill="#EFCD76"/>
<path d="M265.822 121.935C264.591 108.438 257.81 96.0408 245.672 85.091C238.159 78.3137 230.278 73.6187 222.127 71.0332C225.967 73.3478 229.729 76.1656 233.406 79.4787C245.544 90.4285 252.325 102.822 253.556 116.323C254.787 129.889 249.62 143.188 238.198 155.852C226.729 168.567 214.386 174.621 201.512 173.847C197.793 173.622 193.969 172.86 190.052 171.563C198.335 176.359 206.277 179.006 213.782 179.459C226.656 180.233 238.999 174.18 250.467 161.465C261.885 148.8 267.053 135.501 265.822 121.935Z" fill="#DC8D39"/>
<path d="M140.097 108.65L131.791 111.209L111.912 145.096L113.267 151.648L139.018 164.522L142.633 157.52L126.369 145.096L136.308 131.541L140.148 109.854L140.097 108.65Z" fill="#3E6897"/>
<path d="M162.897 107.612L158.676 103.077L154.606 104.208L153.479 108.278L157.092 108.955L160.492 109.641L162.897 107.612Z" fill="#EAC1A4"/>
<path d="M142.28 158.212L146.338 159.044L145.687 161.438L149.204 165.55L144.382 167.304L139.662 163.281L142.28 158.212Z" fill="#E7CAAD"/>
</svg>
