<svg width="55" height="55" viewBox="0 0 55 55" fill="none" xmlns="http://www.w3.org/2000/svg">
<g opacity="0.95" filter="url(#filter0_d_532_1141)">
<circle cx="27.5" cy="23.5" r="23.5" fill="#253439"/>
</g>
<path d="M28 14C22.48 14 18 18.48 18 24C18 29.52 22.48 34 28 34C33.52 34 38 29.52 38 24C38 18.48 33.52 14 28 14ZM24.65 26.77C24.54 27.07 24.25 27.26 23.95 27.26C23.86 27.26 23.78 27.25 23.69 27.21C22.88 26.91 22.2 26.32 21.77 25.55C20.77 23.75 21.39 21.4 23.14 20.31L25.48 18.86C26.34 18.33 27.35 18.17 28.31 18.42C29.27 18.67 30.08 19.3 30.57 20.18C31.57 21.98 30.95 24.33 29.2 25.42L28.94 25.61C28.7775 25.7247 28.5766 25.7711 28.3803 25.7393C28.184 25.7075 28.008 25.6001 27.89 25.44C27.7753 25.2775 27.7289 25.0766 27.7607 24.8803C27.7925 24.684 27.8999 24.508 28.06 24.39L28.37 24.17C29.49 23.47 29.87 22.02 29.26 20.91C28.97 20.39 28.5 20.02 27.94 19.87C27.38 19.72 26.79 19.81 26.28 20.13L23.92 21.59C22.84 22.26 22.46 23.71 23.07 24.83C23.32 25.28 23.72 25.63 24.2 25.81C24.59 25.95 24.79 26.38 24.65 26.77ZM32.92 27.65L30.58 29.1C30.163 29.3619 29.6966 29.5353 29.2097 29.6093C28.7229 29.6832 28.226 29.6563 27.75 29.53C26.79 29.28 25.98 28.65 25.5 27.77C24.5 25.97 25.12 23.62 26.87 22.53L27.13 22.34C27.2925 22.2253 27.4934 22.1789 27.6897 22.2107C27.886 22.2425 28.062 22.3499 28.18 22.51C28.42 22.85 28.34 23.32 28.01 23.56L27.7 23.78C26.58 24.48 26.2 25.93 26.81 27.04C27.1 27.56 27.57 27.93 28.13 28.08C28.69 28.23 29.28 28.14 29.79 27.82L32.13 26.37C33.21 25.7 33.59 24.25 32.98 23.13C32.73 22.68 32.33 22.33 31.85 22.15C31.7572 22.1171 31.6719 22.0659 31.5993 21.9994C31.5266 21.9329 31.4681 21.8525 31.427 21.763C31.386 21.6735 31.3634 21.5767 31.3604 21.4782C31.3575 21.3798 31.3744 21.2818 31.41 21.19C31.4434 21.0975 31.4949 21.0126 31.5614 20.9403C31.628 20.8679 31.7083 20.8096 31.7977 20.7686C31.8871 20.7276 31.9837 20.7049 32.082 20.7017C32.1802 20.6985 32.2782 20.7149 32.37 20.75C33.18 21.05 33.86 21.64 34.29 22.41C35.28 24.21 34.67 26.56 32.92 27.65Z" fill="#FBFBFB"/>
<defs>
<filter id="filter0_d_532_1141" x="0" y="0" width="55" height="55" filterUnits="userSpaceOnUse" color-interpolation-filters="sRGB">
<feFlood flood-opacity="0" result="BackgroundImageFix"/>
<feColorMatrix in="SourceAlpha" type="matrix" values="0 0 0 0 0 0 0 0 0 0 0 0 0 0 0 0 0 0 127 0" result="hardAlpha"/>
<feOffset dy="4"/>
<feGaussianBlur stdDeviation="2"/>
<feComposite in2="hardAlpha" operator="out"/>
<feColorMatrix type="matrix" values="0 0 0 0 0 0 0 0 0 0 0 0 0 0 0 0 0 0 0.1 0"/>
<feBlend mode="normal" in2="BackgroundImageFix" result="effect1_dropShadow_532_1141"/>
<feBlend mode="normal" in="SourceGraphic" in2="effect1_dropShadow_532_1141" result="shape"/>
</filter>
</defs>
</svg>
