<svg width="124" height="201" viewBox="0 0 124 201" fill="none" xmlns="http://www.w3.org/2000/svg">
<path d="M47.8051 38.3305C41.5008 41.3534 34.6558 56.2709 34.6558 56.2709C34.6558 56.2709 42.4223 60.2187 42.8167 60.3513C43.2111 60.4839 58.3496 44.3322 58.3496 44.3322C58.3496 44.3322 50.5424 37.018 47.8051 38.3305Z" fill="#EAC1A4"/>
<path d="M64.9743 190.283C64.9743 190.283 64.7805 194.007 62.2302 194.989C59.6799 195.972 52.3521 196.724 55.018 199.192C56.5482 200.61 63.9508 199.92 66.0318 199.974C68.1162 200.032 70.0476 200.991 71.6322 199.638C73.3766 198.148 71.8804 190.47 71.8804 190.47C71.8804 190.47 70.0578 191.358 68.4427 191.273C66.1134 191.147 64.9743 190.283 64.9743 190.283Z" fill="#263238"/>
<path d="M46.2575 77.2852C46.2575 77.2852 45.302 94.083 49.7972 126.472C53.0412 149.856 56.9822 173.437 58.9204 184.744C59.6141 188.787 62.9193 191.82 66.9249 192.088L69.0773 192.235C73.4094 192.527 77.0274 188.896 76.8302 184.461L73.44 108.229L72.7735 83.1508L46.2575 77.2852Z" fill="#263238"/>
<path d="M88.8434 190.926C88.8434 190.926 88.6496 194.649 86.0993 195.632C83.5491 196.615 76.2212 197.366 78.8871 199.835C80.4173 201.253 87.8199 200.562 89.9009 200.617C91.9854 200.675 93.9168 201.634 95.5014 200.28C97.2457 198.791 95.7496 191.113 95.7496 191.113C95.7496 191.113 93.927 192 92.3118 191.915C89.9826 191.789 88.8434 190.926 88.8434 190.926Z" fill="#263238"/>
<path d="M70.1266 77.9307C70.1266 77.9307 69.1711 94.7285 73.6664 127.117C76.9103 150.501 80.8514 174.083 82.7896 185.389C83.4832 189.432 86.7884 192.465 90.794 192.734L92.9465 192.88C97.2786 193.173 100.897 189.541 100.699 185.107L97.3092 108.874L96.6427 83.7963L70.1266 77.9307Z" fill="#263238"/>
<path d="M98.9211 97.1436C98.8157 99.1702 86.5302 99.6462 71.3747 98.7622C56.2193 97.8815 44.1548 95.457 44.2636 93.4304C44.369 91.4037 56.6069 90.5434 71.7624 91.4241C86.9178 92.3048 99.03 95.1169 98.9211 97.1436Z" fill="#263238"/>
<path d="M96.7583 39.6261C96.7583 39.6261 94.3644 28.9251 74.5776 28.2824C46.0451 27.3575 47.9799 53.6492 44.2633 93.4302C44.2633 93.4302 72.4796 90.2134 98.9515 96.6469C98.9515 96.6435 102.515 56.0363 96.7583 39.6261Z" fill="#3E6897"/>
<path d="M104.104 38.2971L90.9859 45.1013C90.9859 45.1013 62.6166 46.9069 55.1358 45.4685C47.6549 44.0268 45.7439 38.4569 45.7439 38.4569C45.7439 38.4569 53.9694 30.3947 67.6287 28.5517C68.9107 28.3783 70.2402 28.2592 71.6174 28.2048C73.9296 28.1198 76.2385 28.2116 78.4895 28.5279C95.675 30.9319 104.104 38.2971 104.104 38.2971Z" fill="#3E6897"/>
<path d="M77.3635 25.923L75.9999 21.0605L75.6021 19.6459L73.2694 11.3252L72.7118 19.5235L72.3785 24.4438L72.2731 26.0012C72.2017 27.0587 71.5488 27.2627 70.7396 28.1638C70.4097 28.5277 68.3151 30.7345 70.5967 31.8158C73.4429 33.1658 78.8767 31.384 80.9883 28.9153C80.9713 28.9153 77.8055 27.494 77.3635 25.923Z" fill="#EAC1A4"/>
<path d="M46.6068 95.1343C46.6068 95.1343 63.1734 90.741 97.0309 98.2966L97.1602 103.2L47.2155 103.618L46.6068 95.1343Z" fill="#657285"/>
<path d="M104.367 38.6027C105.414 40.1873 103.03 43.676 99.0416 46.3997C95.053 49.1234 90.9691 50.0449 89.9218 48.4604C88.8745 46.8758 91.2582 43.387 95.2468 40.6633C99.232 37.943 103.316 37.0181 104.367 38.6027Z" fill="#263238"/>
<path d="M68.4453 6.7002C68.4453 6.7002 67.5306 8.5534 67.5374 11.1105C67.5442 13.671 71.2812 8.14876 71.2812 8.14876L68.4453 6.7002Z" fill="#263238"/>
<path d="M71.1367 22.5124C67.307 21.1868 65.4981 16.3688 67.0964 11.751C68.6948 7.13331 73.0952 4.46454 76.925 5.79017C80.7547 7.11579 82.5636 11.9338 80.9653 16.5516C79.3669 21.1693 74.9665 23.8381 71.1367 22.5124Z" fill="#EAC1A4"/>
<path d="M81.6529 14.113L78.2492 13.0385C77.5011 12.8005 76.8856 12.2462 76.6034 11.5152C76.1205 10.2536 75.3792 9.50554 72.1115 8.95808C67.9698 8.26781 65.7596 5.26188 65.7596 3.02104C65.7562 0.732587 68.1671 -0.321526 70.0135 1.14743C71.8633 2.61639 71.5028 -0.131106 73.543 0.0049093C77.3548 0.256537 77.4637 3.25907 80.5172 3.78952C84.5228 4.4866 91.0345 8.97509 86.2094 15.2896L81.6529 14.113Z" fill="#263238"/>
<path d="M73.7282 13.7191C73.6942 13.6885 73.6772 13.6409 73.684 13.5933C73.6942 13.5117 73.769 13.4539 73.8506 13.4641C73.8982 13.4709 75.0237 13.4981 75.3332 14.7664C75.3536 14.8446 75.306 14.9262 75.2278 14.95C75.1495 14.9704 75.0849 14.916 75.0441 14.8446C74.6667 14.1135 73.854 13.7667 73.8132 13.7633C73.7826 13.7531 73.752 13.7395 73.7282 13.7191Z" fill="#080435"/>
<path d="M73.9759 15.7182C73.8161 16.0344 73.4999 16.1976 73.2686 16.082C73.0374 15.9664 72.983 15.6161 73.1428 15.2965C73.3026 14.9803 73.6189 14.8171 73.8501 14.9327C74.0813 15.0483 74.1357 15.3985 73.9759 15.7182Z" fill="#080435"/>
<path d="M68.4242 12.1785C68.3902 12.1649 68.3664 12.1343 68.3596 12.0901C68.3494 12.0153 68.3902 11.9337 68.4582 11.9031C68.4956 11.8861 69.3729 11.4168 69.9102 12.3757C69.9442 12.4369 69.9272 12.5254 69.8728 12.5798C69.815 12.6342 69.7538 12.6138 69.7062 12.5696C69.2437 12.1037 68.533 12.1615 68.5024 12.1751C68.4752 12.1853 68.448 12.1887 68.4242 12.1785Z" fill="#080435"/>
<path d="M69.4476 13.9424C69.4204 14.296 69.1891 14.5681 68.9341 14.5477C68.6757 14.5273 68.4921 14.2246 68.5193 13.871C68.5465 13.5174 68.7777 13.2453 69.0327 13.2657C69.2877 13.2861 69.4748 13.5888 69.4476 13.9424Z" fill="#080435"/>
<path d="M86.2139 15.2897C86.2139 15.2897 82.7455 19.9788 79.2635 19.6592C79.2635 19.6592 82.8305 16.2758 77.5191 12.6748C77.5191 12.6782 83.0209 12.9332 86.2139 15.2897Z" fill="#263238"/>
<path d="M80.8217 17.1669C79.9988 17.4797 79.1011 17.1397 78.8223 16.4018C78.5435 15.6639 78.9821 14.8138 79.805 14.501C80.6279 14.1881 81.5256 14.5282 81.8044 15.2661C82.0867 16.0005 81.6446 16.8506 80.8217 17.1669Z" fill="#EAC1A4"/>
<path d="M77.5187 12.6777C77.5187 12.6777 77.0902 17.122 76.0361 17.7647C74.982 18.404 69.0619 17.5573 66.5491 15.9421C65.9302 18.727 67.3924 21.5969 70.0514 22.6272C70.9321 22.9673 71.874 23.1611 72.8431 23.1917C74.8222 23.2495 76.842 22.8414 77.9913 21.2331C78.3415 20.7434 78.3245 17.2818 78.3245 17.2818C78.3245 17.2818 78.464 15.2824 79.8037 14.5003C79.8071 14.5003 78.7428 13.0552 77.5187 12.6777Z" fill="#263238"/>
<path d="M70.8516 0.929514C71.6643 0.929514 71.8955 0.205237 71.8955 0.198436L71.7051 0.140625C71.6949 0.171228 71.4535 0.91251 70.515 0.688085L70.4673 0.881909C70.6068 0.915912 70.736 0.929514 70.8516 0.929514Z" fill="#263238"/>
<path d="M71.1829 7.56775L71.2305 7.47934C71.2203 7.47254 70.1764 6.92168 69.1834 6.08859C68.2721 5.32691 67.218 4.16738 67.3642 2.97725C67.4425 2.33118 67.6363 1.92993 67.9559 1.75311C68.466 1.47088 69.2174 1.81432 69.8805 2.12035C69.9825 2.16796 70.0811 2.21216 70.1798 2.25637L70.2206 2.16456C70.1253 2.12376 70.0267 2.07615 69.9247 2.02854C69.2413 1.71231 68.466 1.35527 67.9117 1.66471C67.5649 1.85853 67.354 2.28357 67.269 2.96364C66.9766 5.3201 71.0095 7.47593 71.1829 7.56775Z" fill="white"/>
<path d="M82.0625 4.95243L82.0693 4.85383C77.6829 4.55459 76.1187 1.73228 76.1051 1.70508L76.0167 1.75268C76.0337 1.77989 77.6183 4.64639 82.0625 4.95243Z" fill="white"/>
<path d="M72.4551 18.7584C72.4551 18.7584 69.6668 18.9217 68.0584 17.9355C68.0618 17.9355 69.2519 22.2404 72.4551 18.7584Z" fill="white"/>
<path d="M67.1026 57.6852C67.1026 57.6852 85.6448 53.0777 88.1338 55.3151C90.8847 57.7906 95.6453 79.9916 93.7819 94.2494C92.7346 102.278 89.8884 102.944 85.706 102.781L67.327 102.063L67.1026 57.6852Z" fill="#213A56"/>
<path d="M69.138 58.1072C67.6045 57.2639 55.3801 55.3155 49.3717 47.6579C42.8906 39.3984 42.5607 25.178 35.4471 26.834C28.5478 28.439 30.6424 54.4076 30.775 55.9752C30.7784 56.016 30.7478 56.05 30.707 56.0534C29.2483 56.1282 10.3218 57.5359 5.27225 61.4634C-0.351967 65.8397 4.51057 71.9331 4.51057 71.9331C2.61656 72.6064 -4.65003 77.7648 4.57178 85.419C4.61598 85.4564 4.61599 85.521 4.58199 85.5686C3.52787 87.0818 -2.29357 93.9879 9.61113 98.1364C9.61113 98.1364 5.45927 106.246 14.1132 108.307C22.7672 110.368 64.3503 104.822 67.3256 102.074C74.5378 95.4059 75.7926 61.766 69.138 58.1072Z" fill="#5E90C9"/>
<path d="M104.104 86.854C104.104 86.854 101.921 76.4998 101.105 76.2822C99.2216 75.7756 95.2839 75.6191 93.3899 75.1499C92.5704 74.9459 89.7617 74.4528 89.4557 75.2417C89.1871 75.9286 91.2341 77.3839 92.2916 77.9586C87.089 79.958 80.1863 84.2493 91.6047 81.818C91.6081 81.8248 91.6081 81.8316 91.6115 81.835C90.5098 82.2839 83.5459 84.7831 84.0695 86.4119C84.4674 87.6497 91.0607 85.5108 92.8799 84.7933C92.8901 84.8103 92.8969 84.8273 92.9071 84.8409C91.1219 85.7318 85.6337 87.6735 86.2253 89.0574C86.7286 90.2373 94.3692 87.6905 94.3692 87.6905C94.3692 87.6905 88.2554 90.3937 89.6665 91.2166C90.9621 91.9715 96.7563 89.6015 98.5177 88.8908C100.344 88.1529 104.104 86.854 104.104 86.854Z" fill="#EAC1A4"/>
<path d="M50.6827 44.3798C51.5804 41.4453 54.4333 37.8035 54.4639 37.7661L54.2088 37.5654C54.1782 37.6028 51.2879 41.2922 50.3732 44.2846L50.6827 44.3798Z" fill="#263238"/>
<path d="M74.3977 133.71L74.7207 133.666C74.7037 133.527 72.8607 119.762 71.4733 114.818C70.0724 109.826 63.6287 105.521 63.5641 105.48L63.3839 105.753C63.4485 105.793 69.7902 110.034 71.1571 114.906C72.5411 119.827 74.3807 133.571 74.3977 133.71Z" fill="#263238"/>
<path d="M22.4824 55.3157C22.4824 55.3157 19.2758 55.7543 19.6737 58.1822C20.1803 61.2765 22.8836 63.1365 23.193 61.739C23.2543 61.4635 22.7612 58.5358 22.7612 58.5358C22.7612 58.5358 25.5971 64.5579 26.9165 63.5956C28.2324 62.6333 25.7093 57.4817 25.7093 57.4817C25.7093 57.4817 29.1437 63.1093 30.0482 61.8716C30.9527 60.6338 28.6948 55.9481 28.6948 55.9481C28.6948 55.9481 31.6906 61.6097 32.7005 60.151C33.7138 58.6956 31.4423 56.0501 30.7929 54.7376C30.1808 53.4965 29.0111 53.4523 27.5999 54.0745C27.5999 54.0745 25.7943 54.0235 24.9851 54.6186C24.6756 54.8464 24.1825 54.7002 23.9071 54.7682C23.3801 54.9042 22.4824 55.3157 22.4824 55.3157Z" fill="#EAC1A4"/>
<path d="M121.708 66.2746C115.373 51.4422 104.383 39.9761 104.192 39.7483C104.192 39.7483 102.074 37.9733 98.3098 40.8636C91.4785 46.1036 91.8525 49.2591 91.8525 49.2591C91.8525 49.2591 107.205 69.6376 109.075 72.6775C110.313 74.7007 123.507 70.4877 121.708 66.2746Z" fill="#EAC1A4"/>
<path d="M98.1277 75.7992C98.1277 75.7992 105.605 72.1982 111.09 65.1356C114.256 61.0586 121.709 66.2747 121.709 66.2747C121.709 66.2747 125.484 73.2013 121.002 79.0805C116.871 84.5007 104.106 86.8504 104.106 86.8504L98.1277 75.7992Z" fill="#EAC1A4"/>
<path d="M106.862 69.8105C106.896 69.8105 106.933 69.7969 106.957 69.7697C109.85 66.672 114.468 66.6652 114.509 66.672C114.584 66.6788 114.642 66.6142 114.642 66.5428C114.642 66.4714 114.584 66.4102 114.512 66.4102C114.465 66.4102 109.738 66.4102 106.763 69.5929C106.712 69.6473 106.715 69.7289 106.77 69.7799C106.797 69.8003 106.828 69.8105 106.862 69.8105Z" fill="#E59562"/>
</svg>
