<svg width="56" height="57" viewBox="0 0 56 57" fill="none" xmlns="http://www.w3.org/2000/svg">
<g id="Group 1098">
<path id="Vector" d="M47.5248 25.0124C47.5248 37.4457 37.4457 47.5248 25.0124 47.5248C12.5791 47.5248 2.5 37.4457 2.5 25.0124C2.5 12.5791 12.5791 2.5 25.0124 2.5C37.4457 2.5 47.5248 12.5791 47.5248 25.0124Z" stroke="white" stroke-width="5"/>
<path id="Vector_2" d="M55.4939 47.0543C54.5778 45.3609 52.6346 44.417 50.0251 44.417C48.0541 44.417 46.3607 45.2221 45.3613 46.6101C44.3619 47.9981 44.1398 49.8581 44.7506 51.7181C45.9443 55.3269 48.0263 56.132 49.1645 56.2708C49.3311 56.2986 49.4976 56.2986 49.692 56.2986C50.9134 56.2986 52.8012 55.7711 54.6334 53.0228C56.1047 50.8852 56.3823 48.7477 55.4939 47.0543Z" fill="white"/>
</g>
</svg>
