<svg width="164" height="109" viewBox="0 0 164 109" fill="none" xmlns="http://www.w3.org/2000/svg">
<g id="Group 1031">
<g id="Group 1071">
<path id="Vector 1" d="M161.734 25.5484C61.318 7.5922 14.5817 100.284 16.3643 103.604" stroke="#253439" stroke-width="2" stroke-dasharray="4 4"/>
<path id="Arrow 1" d="M14.1147 107.876C14.374 108.364 14.9794 108.549 15.4671 108.289L23.4137 104.064C23.9014 103.805 24.0865 103.2 23.8272 102.712C23.568 102.224 22.9625 102.039 22.4748 102.298L15.4112 106.054L11.6556 98.9904C11.3963 98.5028 10.7908 98.3176 10.3031 98.5769C9.8155 98.8362 9.63036 99.4417 9.88963 99.9293L14.1147 107.876ZM14.3337 106.158L14.0413 107.114L15.9539 107.699L16.2463 106.743L14.3337 106.158Z" fill="#253439"/>
</g>
</g>
</svg>
