<svg width="24" height="24" viewBox="0 0 24 24" fill="none" xmlns="http://www.w3.org/2000/svg">
<path d="M12 2C6.48 2 2 6.48 2 12C2 17.52 6.48 22 12 22C17.52 22 22 17.52 22 12C22 6.48 17.52 2 12 2ZM8.65 14.77C8.54 15.07 8.25 15.26 7.95 15.26C7.86 15.26 7.78 15.25 7.69 15.21C6.88 14.91 6.2 14.32 5.77 13.55C4.77 11.75 5.39 9.4 7.14 8.31L9.48 6.86C10.34 6.33 11.35 6.17 12.31 6.42C13.27 6.67 14.08 7.3 14.57 8.18C15.57 9.98 14.95 12.33 13.2 13.42L12.94 13.61C12.7775 13.7247 12.5766 13.7711 12.3803 13.7393C12.184 13.7075 12.008 13.6001 11.89 13.44C11.7753 13.2775 11.7289 13.0766 11.7607 12.8803C11.7925 12.684 11.8999 12.508 12.06 12.39L12.37 12.17C13.49 11.47 13.87 10.02 13.26 8.91C12.97 8.39 12.5 8.02 11.94 7.87C11.38 7.72 10.79 7.81 10.28 8.13L7.92 9.59C6.84 10.26 6.46 11.71 7.07 12.83C7.32 13.28 7.72 13.63 8.2 13.81C8.59 13.95 8.79 14.38 8.65 14.77ZM16.92 15.65L14.58 17.1C14.163 17.3619 13.6966 17.5353 13.2097 17.6093C12.7229 17.6832 12.226 17.6563 11.75 17.53C10.79 17.28 9.98 16.65 9.5 15.77C8.5 13.97 9.12 11.62 10.87 10.53L11.13 10.34C11.2925 10.2253 11.4934 10.1789 11.6897 10.2107C11.886 10.2425 12.062 10.3499 12.18 10.51C12.42 10.85 12.34 11.32 12.01 11.56L11.7 11.78C10.58 12.48 10.2 13.93 10.81 15.04C11.1 15.56 11.57 15.93 12.13 16.08C12.69 16.23 13.28 16.14 13.79 15.82L16.13 14.37C17.21 13.7 17.59 12.25 16.98 11.13C16.73 10.68 16.33 10.33 15.85 10.15C15.7572 10.1171 15.6719 10.0659 15.5993 9.99939C15.5266 9.93292 15.4681 9.85254 15.427 9.76303C15.386 9.67351 15.3634 9.57667 15.3604 9.47824C15.3575 9.37981 15.3744 9.2818 15.41 9.19C15.4434 9.09753 15.4949 9.01264 15.5614 8.94028C15.628 8.86793 15.7083 8.80957 15.7977 8.76861C15.8871 8.72764 15.9837 8.7049 16.082 8.7017C16.1802 8.69851 16.2782 8.71493 16.37 8.75C17.18 9.05 17.86 9.64 18.29 10.41C19.28 12.21 18.67 14.56 16.92 15.65Z" fill="#FBFBFB"/>
</svg>
