<svg width="164" height="109" viewBox="0 0 164 109" fill="none" xmlns="http://www.w3.org/2000/svg">
<g id="Group 1030">
<g id="Group 1070">
<path id="Vector 1" d="M1.77497 25.6978C102.191 7.74161 148.927 100.434 147.144 103.754" stroke="#253439" stroke-width="2" stroke-dasharray="4 4"/>
<path id="Arrow 1" d="M149.39 108.025C149.131 108.513 148.525 108.698 148.038 108.439L140.091 104.214C139.604 103.955 139.418 103.349 139.678 102.861C139.937 102.374 140.542 102.189 141.03 102.448L148.094 106.203L151.849 99.1398C152.109 98.6522 152.714 98.467 153.202 98.7263C153.689 98.9856 153.875 99.5911 153.615 100.079L149.39 108.025ZM149.171 106.307L149.464 107.264L147.551 107.848L147.259 106.892L149.171 106.307Z" fill="#253439"/>
</g>
</g>
</svg>
