<svg width="198" height="220" viewBox="0 0 198 220" fill="none" xmlns="http://www.w3.org/2000/svg">
<path d="M119.074 52.6724C122.785 52.6724 125.793 49.2417 125.793 45.0106C125.793 40.7796 122.785 37.3489 119.074 37.3489C118.925 37.3489 118.778 37.3581 118.631 37.3712C118.57 37.3764 118.514 37.3345 118.503 37.2729C118.227 35.7783 117.872 34.3177 117.445 32.8951C117.429 32.8441 117.45 32.789 117.496 32.7602C119.554 31.4503 120.946 28.9444 120.946 26.0652C120.946 23.2567 117.489 18.5318 117.489 18.5318C117.481 18.4716 117.43 18.4257 117.369 18.4257L114.728 18.4139C114.725 18.4139 114.378 18.4165 114.218 18.4165C112.886 18.4165 111.656 18.8488 110.612 19.6099C110.56 19.6479 110.489 19.6387 110.448 19.5889C109.814 18.8121 109.154 18.0655 108.465 17.3516C108.427 17.3123 108.421 17.2507 108.451 17.2049C109.246 15.946 109.72 14.4069 109.72 12.7367C109.72 10.088 106.576 5.2518 106.576 5.2518C106.568 5.19154 106.517 5.14569 106.456 5.14569C106.456 5.14569 103.286 5.15748 102.982 5.15748C100.291 5.15748 97.9949 6.88134 96.9207 9.48547C96.8958 9.54573 96.8277 9.57586 96.7674 9.55228C95.6186 9.1187 94.4423 8.75454 93.2411 8.46635C93.1835 8.45194 93.1455 8.39955 93.1494 8.3406C93.1665 8.11791 93.1756 7.8913 93.1756 7.66337C93.1756 4.86013 89.7266 0.109033 89.7266 0.109033C89.7187 0.0487767 89.6677 0.00292969 89.6061 0.00292969H86.5854L86.5959 0.0068593C86.5487 0.00554938 86.5029 0.00292969 86.457 0.00292969C82.746 0.00292969 79.7384 3.43362 79.7384 7.66468C79.7384 7.89261 79.7476 8.11922 79.7646 8.34191C79.7686 8.40086 79.7306 8.45456 79.6729 8.46766C78.1809 8.82658 75.1812 9.87452 75.1576 9.80902C74.5786 8.21747 72.0924 5.1994 72.0924 5.1994C72.0845 5.13915 72.0335 5.0933 71.9719 5.0933H69.3363C69.3337 5.0933 69.3311 5.0933 69.3285 5.0933C69.204 5.08544 69.0796 5.07627 68.9538 5.07627C65.2428 5.07627 62.2352 8.50696 62.2352 12.738C62.2352 14.6728 62.8692 16.4333 63.9067 17.7812C63.942 17.8284 63.9394 17.8926 63.9001 17.9358C63.2727 18.617 61.9654 20.1221 61.913 20.0736C61.6313 19.8182 61.3314 19.5889 61.0157 19.3859C60.9855 19.3662 60.8663 18.5095 60.8663 18.5095C60.8585 18.4493 60.8074 18.4034 60.7458 18.4034H57.7265C54.0154 18.4034 51.0079 21.8341 51.0079 26.0652C51.0079 29.3073 52.7776 32.0712 55.273 33.1899C55.328 33.2148 55.3568 33.275 55.3398 33.3327C54.9717 34.6098 54.6625 35.9171 54.4163 37.2506C54.4058 37.3083 54.356 37.3489 54.2984 37.3489H52.6099L52.6282 37.3567C49.0351 37.5087 46.1611 40.8765 46.1611 45.0106C46.1611 49.2417 49.1687 52.6724 52.8797 52.6724C53.0147 52.6724 53.1483 52.6671 53.2819 52.6567C53.2845 52.6567 53.2871 52.6567 53.2897 52.6567H54.2945C54.3521 52.6567 54.4019 52.6986 54.4123 52.7549C54.5813 53.6692 54.7804 54.5731 55.0071 55.4612C55.0228 55.5215 54.9887 55.583 54.9311 55.604C52.2182 56.5891 50.252 59.4827 50.252 62.9029C50.252 67.1339 53.2596 70.5647 56.9706 70.5647C57.0374 70.5647 57.1042 70.562 57.171 70.5594H59.5289C59.6625 70.5594 59.6979 70.3747 59.5734 70.3262L59.415 70.2647C59.3154 70.2254 59.3115 70.0865 59.4097 70.042C60.0332 69.7643 60.6122 69.3844 61.1296 68.9194C61.1833 68.8709 61.2646 68.8788 61.3078 68.9364C62.0675 69.9739 62.8758 70.9629 63.7285 71.9008C63.7665 71.9427 63.7705 72.0056 63.7377 72.0514C62.7985 73.3692 62.2352 75.0472 62.2352 76.8772C62.2352 81.1082 65.2428 84.5389 68.9538 84.5389C69.0508 84.5389 69.1464 84.5311 69.2433 84.5271H71.4034C71.537 84.5271 71.5724 84.3424 71.4479 84.294L71.351 84.256C71.2501 84.2167 71.2488 84.0765 71.347 84.0333C72.9674 83.3272 74.2852 81.9269 75.024 80.1507C75.0502 80.0891 75.1196 80.059 75.1812 80.0852C76.6326 80.6917 78.1325 81.1855 79.6729 81.5562C79.7306 81.5706 79.7686 81.623 79.7646 81.682C79.7476 81.9047 79.7384 82.1313 79.7384 82.3592C79.7384 86.4999 82.6189 89.8703 86.2186 90.0144L86.2199 90.021H86.457H88.7062C88.8398 90.021 88.8752 89.8363 88.7507 89.7878C88.6485 89.7485 88.6485 89.6057 88.7494 89.5638C91.3313 88.4949 93.1756 85.6733 93.1756 82.3605C93.1756 82.1326 93.1665 81.906 93.1494 81.6833C93.1455 81.6243 93.1835 81.5706 93.2411 81.5575C94.496 81.2563 95.7234 80.8738 96.9207 80.414C96.9797 80.3917 97.0451 80.4179 97.0727 80.4755C98.2018 82.8937 100.43 84.5415 103 84.5415C106.711 84.5415 109.719 81.1108 109.719 76.8798C109.719 75.3171 109.307 73.8643 108.603 72.6527C108.575 72.6068 108.582 72.5492 108.62 72.5099C109.547 71.5379 110.425 70.5044 111.249 69.4172C111.288 69.3648 111.361 69.3543 111.415 69.3923C112.45 70.1337 113.672 70.5673 114.983 70.5673C118.694 70.5673 121.702 67.1366 121.702 62.9055C121.702 59.8521 120.131 57.2218 117.865 55.9917C117.817 55.9655 117.792 55.9092 117.806 55.8555C118.076 54.839 118.31 53.8028 118.504 52.751C118.516 52.6894 118.571 52.6475 118.634 52.6527C118.778 52.6632 118.925 52.6724 119.074 52.6724ZM84.6559 71.4004C71.6221 71.4004 61.0563 59.6137 61.0563 45.0735C61.0563 30.5333 71.6221 18.7466 84.6559 18.7466C97.6896 18.7466 108.255 30.5333 108.255 45.0735C108.255 59.6137 97.6896 71.4004 84.6559 71.4004Z" fill="#D0D6EC"/>
<path d="M122.201 52.6721C125.912 52.6721 128.919 49.2414 128.919 45.0103C128.919 40.7793 125.912 37.3486 122.201 37.3486C122.015 37.3486 121.831 37.363 121.649 37.38C121.365 35.8173 120.994 34.2912 120.544 32.8071C122.645 31.5116 124.071 28.9782 124.071 26.0636C124.071 21.8325 121.064 18.4018 117.353 18.4018C115.981 18.4018 114.708 18.8721 113.646 19.6764C112.97 18.8433 112.262 18.0429 111.524 17.2831C112.35 16.0099 112.844 14.4406 112.844 12.7351C112.844 8.50403 109.836 5.07334 106.125 5.07334C103.398 5.07334 101.055 6.9295 100.003 9.59258C98.7872 9.12756 97.5402 8.74244 96.2669 8.44116C96.2892 8.18441 96.301 7.92504 96.301 7.66175C96.301 3.43069 93.2934 0 89.5824 0C85.8713 0 82.8638 3.43069 82.8638 7.66175C82.8638 7.92504 82.8755 8.18441 82.8978 8.44116C81.3298 8.81186 79.8025 9.30964 78.3249 9.92661C77.3411 7.08669 74.9191 5.07465 72.0792 5.07465C68.3681 5.07465 65.3605 8.50534 65.3605 12.7364C65.3605 14.7091 66.0194 16.5024 67.0936 17.8595C66.4111 18.5944 65.7575 19.362 65.1339 20.1611C63.9707 19.0633 62.4787 18.4031 60.8518 18.4031C57.1408 18.4031 54.1332 21.8338 54.1332 26.0649C54.1332 29.3489 55.9487 32.1416 58.4939 33.2315C58.0852 34.6331 57.7473 36.0714 57.4853 37.5424C57.0085 37.4193 56.5133 37.3499 56.0038 37.3499C52.2927 37.3499 49.2852 40.7806 49.2852 45.0116C49.2852 49.2427 52.2927 52.6734 56.0038 52.6734C56.5133 52.6734 57.0085 52.6026 57.4853 52.4808C57.6713 53.5275 57.8979 54.5571 58.1586 55.5696C55.392 56.518 53.376 59.4418 53.376 62.9052C53.376 67.1363 56.3836 70.5669 60.0947 70.5669C61.7111 70.5669 63.1939 69.9146 64.3532 68.83C65.1549 69.9329 66.0116 70.9835 66.9194 71.9751C65.9461 73.3047 65.3605 75.0128 65.3605 76.8795C65.3605 81.1105 68.3681 84.5412 72.0792 84.5412C74.8012 84.5412 77.1381 82.6929 78.1952 80.0403C79.7134 80.6822 81.284 81.1996 82.8978 81.5821C82.8755 81.8389 82.8638 82.0982 82.8638 82.3615C82.8638 86.5926 85.8713 90.0233 89.5824 90.0233C93.2934 90.0233 96.301 86.5926 96.301 82.3615C96.301 82.0982 96.2892 81.8389 96.2669 81.5821C97.5926 81.269 98.8894 80.8643 100.151 80.3731C101.266 82.8462 103.52 84.5412 106.125 84.5412C109.836 84.5412 112.844 81.1105 112.844 76.8795C112.844 75.2827 112.414 73.8012 111.682 72.5738C112.659 71.5546 113.581 70.4674 114.445 69.3212C115.499 70.1059 116.755 70.5656 118.109 70.5656C121.82 70.5656 124.827 67.1349 124.827 62.9039C124.827 59.8125 123.219 57.1559 120.907 55.9443C121.196 54.8636 121.445 53.7619 121.649 52.6406C121.831 52.6577 122.015 52.6721 122.201 52.6721ZM90.5321 71.4001C77.4983 71.4001 66.9325 59.6134 66.9325 45.0732C66.9325 30.533 77.4983 18.7463 90.5321 18.7463C103.566 18.7463 114.132 30.533 114.132 45.0732C114.132 59.6134 103.566 71.4001 90.5321 71.4001Z" fill="#3E6897"/>
<path d="M177.473 72.6187C177.473 90.5358 164.453 105.06 148.392 105.06C147.346 105.06 146.402 104.337 145.385 104.215C159.991 102.493 171.284 89.3687 171.284 72.6187C171.284 55.8687 159.904 42.0843 145.299 40.3631C146.317 40.2413 147.346 40.1797 148.393 40.1797C164.453 40.1797 177.473 54.7041 177.473 72.6187Z" fill="#CD7930"/>
<path d="M188.664 81.9816C193.236 81.9816 196.944 77.7545 196.944 72.541C196.944 67.3275 193.236 63.1003 188.664 63.1003C188.435 63.1003 188.21 63.12 187.984 63.141C187.634 61.2141 187.176 59.3343 186.623 57.507C189.212 55.9102 190.968 52.7873 190.968 49.1981C190.968 44.1379 187.479 40.009 183.096 39.7693L177.7 39.8361C177.429 39.8361 177.162 39.8518 176.898 39.8806C176.444 39.3684 175.983 38.8667 175.508 38.3795C176.526 36.8089 177.137 34.8767 177.137 32.7756C177.137 27.5621 173.428 23.335 168.857 23.335C168.821 23.335 168.786 23.335 168.749 23.3376V23.335L164.246 23.4214C164.119 23.4149 163.992 23.4096 163.865 23.4096C163.638 23.4096 163.415 23.4214 163.193 23.4411L163.189 23.4437C161.904 23.5616 160.704 24.0161 159.652 24.7261C158.6 25.4387 157.701 26.4094 157.018 27.5608C156.913 27.5359 156.813 27.5071 156.708 27.4822C156.737 27.1665 156.75 26.8456 156.75 26.5207C156.75 21.3072 153.045 17.0801 148.473 17.0801L143.546 17.16C143.524 17.16 143.504 17.1574 143.482 17.1574C143.405 17.1574 143.326 17.1613 143.25 17.1639L143.157 17.1665H143.155C142.794 17.1823 142.439 17.2242 142.092 17.2936C142.092 17.2936 142.09 17.2936 142.088 17.2962C141.859 17.3722 134.175 19.9934 135.04 29.0908L134.495 29.3122C134.495 29.3122 133.573 26.4133 131.283 24.8414C128.448 22.8948 126.296 23.3546 126.013 23.39L121.726 23.4096V23.4162C117.24 23.5301 113.634 27.7075 113.634 32.8503C113.634 35.2828 114.448 37.4913 115.769 39.1641C115.585 39.3645 115.403 39.5676 115.219 39.7719L113.727 39.7876C113.511 39.768 113.291 39.7562 113.07 39.7562C112.792 39.7562 112.516 39.7719 112.243 39.8033L108.448 39.844C108.426 39.844 108.404 39.8413 108.384 39.84C108.282 39.8374 108.18 39.8361 108.079 39.8361C107.898 39.8361 107.722 39.8426 107.547 39.8557H107.536C107.387 39.8662 107.238 39.8806 107.091 39.9003C102.984 40.457 99.8001 44.4418 99.8001 49.2767C99.8001 53.3218 102.039 56.7642 105.173 58.1069C104.694 59.7509 104.296 61.4381 103.981 63.1606L102.32 63.1868C102.25 63.1842 102.178 63.1803 102.107 63.1803C101.933 63.1803 101.764 63.1894 101.595 63.1999L101.279 63.2038C101.279 63.2038 101.282 63.213 101.282 63.2261C97.0964 63.6977 93.8281 67.7231 93.8281 72.6196C93.8281 77.8331 97.5339 82.0602 102.108 82.0602L103.972 82.0314C104.195 83.247 104.458 84.4482 104.763 85.6284C101.356 86.7982 98.87 90.3992 98.87 94.6682C98.87 99.6813 102.298 103.779 106.627 104.087V104.089H106.638C106.807 104.1 106.976 104.109 107.147 104.109C107.374 104.109 107.599 104.096 107.822 104.075L112.033 104.03L112.031 104.026C112.066 104.029 112.102 104.03 112.14 104.03C112.719 104.03 113.282 103.961 113.828 103.832C114.387 104.52 114.961 105.193 115.556 105.843C114.357 107.481 113.634 109.587 113.634 111.885C113.634 117.101 117.343 121.325 121.914 121.325L126.798 121.249L126.795 121.245C126.83 121.248 126.866 121.249 126.904 121.249C129.693 121.249 132.153 119.672 133.651 117.263C134.176 117.412 134.707 117.553 135.241 117.68C135.215 117.994 135.199 118.315 135.199 118.64C135.199 123.853 138.908 128.08 143.479 128.08L148.466 128.002C148.469 128.002 148.469 128.002 148.47 128.002H148.486L148.804 127.998C148.804 127.998 148.804 127.995 148.804 127.994C153.22 127.794 156.748 123.649 156.748 118.563C156.748 118.24 156.735 117.919 156.706 117.602C156.873 117.562 157.037 117.517 157.205 117.475C158.71 119.807 161.129 121.326 163.863 121.326L168.669 121.241C168.732 121.244 168.792 121.251 168.854 121.251C173.426 121.251 177.134 117.023 177.134 111.81C177.134 109.844 176.604 108.018 175.702 106.505C176.462 105.712 177.19 104.886 177.894 104.03H183.512V104.028C183.547 104.028 183.583 104.03 183.62 104.03C188.191 104.03 191.9 99.8031 191.9 94.5896C191.9 90.7817 189.918 87.5082 187.067 86.0149C187.426 84.6814 187.731 83.3243 187.983 81.9436C188.209 81.9646 188.435 81.9816 188.664 81.9816ZM148.312 104.375C132.205 104.375 119.15 90.001 119.15 72.2698C119.15 54.5374 132.205 40.1623 148.312 40.1623C164.417 40.1623 177.473 54.5374 177.473 72.2698C177.473 90.0023 164.419 104.375 148.312 104.375Z" fill="#DC8D39"/>
<path d="M188.558 81.9826C193.13 81.9826 196.837 77.7555 196.837 72.542C196.837 67.3285 193.13 63.1013 188.558 63.1013C188.329 63.1013 188.104 63.1197 187.879 63.1406C187.527 61.215 187.072 59.3353 186.517 57.5053C189.106 55.9098 190.865 52.787 190.865 49.1965C190.865 43.983 187.158 39.7558 182.586 39.7558C180.897 39.7558 179.327 40.3361 178.017 41.3265C177.186 40.2995 176.313 39.3144 175.403 38.3765C176.421 36.8085 177.03 34.8738 177.03 32.7726C177.03 27.5591 173.324 23.332 168.751 23.332C165.39 23.332 162.504 25.6191 161.206 28.9005C159.709 28.3281 158.172 27.8526 156.601 27.4819C156.629 27.1662 156.645 26.8452 156.645 26.5217C156.645 21.3082 152.938 17.0811 148.366 17.0811C143.794 17.0811 140.087 21.3082 140.087 26.5217C140.087 26.8465 140.102 27.1662 140.13 27.4819C138.198 27.939 136.316 28.5521 134.496 29.3118C133.285 25.813 130.299 23.3333 126.799 23.3333C122.228 23.3333 118.521 27.5605 118.521 32.774C118.521 35.2052 119.333 37.4137 120.657 39.0878C119.817 39.993 119.012 40.94 118.242 41.9238C116.809 40.5706 114.971 39.7572 112.965 39.7572C108.394 39.7572 104.686 43.9843 104.686 49.1978C104.686 53.2441 106.924 56.6853 110.06 58.0293C109.557 59.7571 109.14 61.5294 108.817 63.341C108.229 63.1904 107.619 63.1026 106.991 63.1026C102.419 63.1026 98.7119 67.3298 98.7119 72.5433C98.7119 77.7568 102.419 81.9839 106.991 81.9839C107.619 81.9839 108.229 81.8974 108.817 81.7455C109.046 83.0345 109.325 84.3038 109.647 85.5521C106.239 86.7206 103.754 90.3229 103.754 94.5906C103.754 99.8041 107.461 104.031 112.033 104.031C114.025 104.031 115.851 103.228 117.28 101.892C118.269 103.252 119.325 104.546 120.441 105.767C119.242 107.404 118.519 109.511 118.519 111.811C118.519 117.024 122.226 121.252 126.798 121.252C130.151 121.252 133.032 118.974 134.334 115.705C136.205 116.496 138.139 117.134 140.129 117.605C140.102 117.92 140.086 118.241 140.086 118.565C140.086 123.778 143.793 128.005 148.365 128.005C152.936 128.005 156.643 123.778 156.643 118.565C156.643 118.24 156.629 117.92 156.6 117.605C158.234 117.218 159.832 116.72 161.387 116.115C162.759 119.163 165.538 121.252 168.748 121.252C173.321 121.252 177.027 117.024 177.027 111.811C177.027 109.843 176.498 108.019 175.595 106.506C176.799 105.249 177.936 103.911 178.999 102.499C180.298 103.465 181.846 104.031 183.513 104.031C188.084 104.031 191.791 99.8041 191.791 94.5906C191.791 90.7813 189.809 87.5079 186.96 86.0158C187.318 84.6836 187.623 83.3253 187.875 81.9446C188.102 81.9642 188.328 81.9826 188.558 81.9826ZM148.312 104.376C132.207 104.376 119.151 90.0006 119.151 72.2695C119.151 54.537 132.207 40.1632 148.312 40.1632C164.418 40.1632 177.474 54.5384 177.474 72.2695C177.474 90.0006 164.418 104.376 148.312 104.376Z" fill="#EFCD76"/>
<path d="M104.172 214.565L102.896 219.427L89.6592 219.432C89.6605 219.432 92.9681 213.009 104.172 214.565Z" fill="#221E50"/>
<path d="M130.086 203.288L132.003 207.933L121.548 216.051C121.548 216.051 120.214 208.812 130.086 203.288Z" fill="#221E50"/>
<path d="M160.866 216.69C160.866 216.69 161.578 217.322 163.267 217.322C165.18 217.322 165.668 216.69 165.668 216.69V189.812H160.864V216.69H160.866Z" fill="#B9C0D6"/>
<path d="M134.436 178.892C134.44 178.911 134.442 178.933 134.444 178.953C134.609 180.149 134.849 181.265 135.133 182.282C135.682 184.26 136.403 185.873 137.075 187.003C139.676 191.39 144.609 196.274 156.439 197.868C157.012 197.944 157.604 198.016 158.21 198.076C159.313 198.189 160.475 198.273 161.693 198.329C161.771 198.333 161.848 198.336 161.927 198.337C162.004 198.342 162.081 198.343 162.161 198.345C165.601 198.258 169.452 197.628 173.746 196.609C182.559 194.518 188.302 190.213 191.933 184.977C191.933 184.977 191.934 184.977 191.934 184.976C192.242 184.53 192.536 184.08 192.816 183.622C193.54 182.433 194.168 181.203 194.705 179.946C196.722 175.235 197.494 170.156 197.566 165.447C197.498 160.978 196.806 156.943 196.034 154.074C195.434 151.837 194.5 149.709 193.232 147.837C192.901 147.344 192.543 146.867 192.161 146.413C190.953 144.96 189.506 143.716 187.813 142.752C183.603 140.352 169.755 137.961 158.024 144.152C136.431 155.546 133.182 169.619 134.436 178.892Z" fill="#667378"/>
<path d="M143.687 219.431H183.536C184.466 219.431 185.226 218.67 185.226 217.742C185.226 216.812 184.465 216.052 183.536 216.052H143.687C142.757 216.052 141.997 216.813 141.997 217.742C141.997 218.67 142.758 219.431 143.687 219.431Z" fill="#B9C0D6"/>
<path d="M134.445 182.343C134.929 185.245 136.058 187.573 137.076 188.987C139.677 192.607 144.61 196.637 156.44 197.952C157.013 198.015 157.605 198.074 158.211 198.123C159.314 198.217 160.476 198.287 161.694 198.331C161.772 198.335 161.849 198.338 161.928 198.338C162.005 198.343 162.082 198.344 162.162 198.345C165.602 198.259 169.453 197.629 173.747 196.61C182.56 194.519 188.303 190.213 191.934 184.978C191.934 184.978 191.935 184.978 191.935 184.976C192.243 184.531 192.537 184.08 192.817 183.623C186.13 182.028 171.846 179.231 157.656 180.373C149.957 180.993 141.973 181.679 135.136 182.282C134.902 182.303 134.675 182.322 134.445 182.343Z" fill="#667378"/>
<path d="M148.607 160.668C149.441 161.504 158.671 161.744 166.09 162.03C172.619 162.279 178.607 162.364 178.607 162.364C179.951 160.683 181.365 157.481 181.998 152.074C183.904 151.839 185.654 151.499 187.243 151.1C192.624 149.751 196.144 147.725 197.5 146.847C197.882 146.6 198.072 146.141 197.974 145.696C197.024 141.399 191.735 119.047 182.643 109.687C182.324 109.36 181.506 108.242 169.44 105.882C168.895 107.361 163.596 109.818 158.958 109.578C158.447 109.552 157.691 108.855 157.682 108.854C154.019 108.337 152.277 106.374 152.449 106.11C152.296 106.123 148.604 107.156 148.604 107.156C143.203 130.786 147.433 159.492 148.607 160.668ZM181.507 133.047C181.943 134.132 182.535 135.309 183.139 136.419C184.476 138.866 185.89 140.969 185.89 140.969C185.782 141.17 185.278 141.44 184.513 141.752C183.912 141.999 183.144 142.274 182.284 142.564C182.276 140.304 182.73 141.579 182.517 138.566C182.314 135.692 182.108 134.544 181.507 133.047Z" fill="#3E6897"/>
<path d="M156.891 99.6949C156.891 99.6949 155.879 107.996 155.765 109.17L162.482 110.207L166.894 106.554C166.894 106.554 164.721 102.463 165.158 96.3887L156.891 99.6949Z" fill="url(#paint0_linear_532_588)"/>
<path d="M166.091 162.03C172.62 162.279 178.488 164.881 178.488 164.881C179.832 163.199 184.158 147.1 182.666 142.163C182.675 141.284 182.732 141.577 182.518 138.566C182.313 135.693 181.707 131.048 180.004 130.762C178.492 130.51 178.125 137.588 177.443 144.107C177.108 147.328 176.694 150.413 176.026 152.412C175.786 153.128 175.515 153.706 175.202 154.099C172.4 157.622 165.33 159.87 166.091 162.03Z" fill="#2A588B"/>
<path d="M115.805 145.558C115.893 145.564 115.981 145.574 116.068 145.591C117.31 145.654 121.277 145.049 121.277 145.049C121.277 145.049 120.027 150.313 119.341 150.515C117.481 151.063 115.916 152.703 114.354 153.08C113.287 153.338 112.221 152.658 112.013 151.58C111.98 151.467 111.958 151.351 111.946 151.233C111.911 150.878 111.972 150.511 112.148 150.172L113.996 146.589C114.351 145.9 115.074 145.519 115.805 145.558Z" fill="#E7B2B6"/>
<path d="M122.169 144.27L118.948 144.942L118.294 150.976L122.273 150.959L122.169 144.27Z" fill="#2A588B"/>
<path d="M122.169 144.269L122.274 150.958C122.274 150.958 127.965 151.178 133.67 150.951C138.683 150.753 143.707 150.21 144.888 148.868C146.236 147.338 147.206 135.566 147.815 124.918C148.346 115.605 148.606 107.152 148.606 107.152C148.606 107.152 144.304 109.166 143.539 109.684C140.283 111.892 135.452 140.22 135.452 140.22C135.452 140.22 123.74 143.651 122.169 144.269Z" fill="#3E6897"/>
<path d="M133.67 150.952C138.683 150.754 143.707 150.21 144.888 148.869C146.236 147.339 144.939 130.542 145.548 119.894C140.746 129.666 144.305 137.458 143.387 142.562C142.475 147.623 137.932 149.918 133.67 150.952Z" fill="#2A588B"/>
<path d="M156.054 100.341C156.054 100.341 165.678 100.781 165.859 94.7827C166.041 88.7858 167.405 84.8037 161.269 84.2692C155.133 83.7348 153.868 85.9879 153.322 87.9737C152.773 89.9622 153.556 100.072 156.054 100.341Z" fill="#E7B2B6"/>
<path d="M165.859 94.7844C165.859 94.7844 165.14 86.7821 156.567 87.0689C147.993 87.3558 151.703 79.2474 159.069 78.0527C159.069 78.0527 158.3 80.9097 162.934 81.3616C172.662 82.3074 166.724 93.5138 165.859 94.7844Z" fill="#555CA5"/>
<path d="M177.303 167.178C177.303 167.178 171.736 181.669 153.539 182.013C124.962 182.556 124.963 182.662 124.963 182.662C124.963 182.662 127.142 196.495 106.867 215.267H95.4521L117.369 161.844L154.662 160.439C154.662 160.439 180.733 159.852 182.786 163.448C183.232 164.231 177.303 167.178 177.303 167.178Z" fill="#2D3234"/>
<path d="M148.607 160.669L124.066 149.183C120.77 147.97 117.14 148.038 113.893 149.373L110.376 150.819C108.79 151.472 107.941 153.206 108.399 154.858L121.821 208.155L132.583 204.837C132.583 204.837 134.105 185.384 131.369 176.241C129.235 169.111 126.412 162.235 126.412 162.235L148.607 160.669Z" fill="#2D3234"/>
<path d="M156.439 197.869C156.439 197.936 158.768 198.27 160.04 198.327C160.554 198.351 161.077 198.359 161.611 198.355C161.657 198.356 161.701 198.356 161.747 198.355C161.884 198.351 162.022 198.35 162.16 198.347C165.6 198.261 169.451 197.63 173.745 196.611C185.258 193.88 191.528 187.37 194.704 179.948C196.721 175.237 197.492 170.159 197.565 165.45C197.498 160.98 196.805 156.946 196.033 154.077C195.433 151.839 194.499 149.713 193.231 147.839C192.982 147.468 192.718 147.105 192.436 146.756C192.347 146.64 192.254 146.528 192.16 146.415C184.227 154.711 160.255 181.086 156.439 197.869Z" fill="#4C5659"/>
<path d="M157.04 197.869C157.04 197.936 159.369 198.27 160.641 198.328C160.961 198.343 161.283 198.351 161.61 198.355C161.656 198.356 161.701 198.356 161.747 198.355C161.883 198.351 162.022 198.35 162.159 198.347C165.599 198.261 169.45 197.631 173.744 196.612C185.257 193.88 191.528 187.37 194.703 179.948C196.72 175.238 197.492 170.159 197.564 165.45C197.497 160.98 196.804 156.946 196.033 154.077C195.433 151.84 194.499 149.714 193.231 147.839C192.982 147.468 192.717 147.106 192.436 146.756C184.193 155.409 160.806 181.308 157.04 197.869Z" fill="#667378"/>
<path d="M187.531 140.758C187.531 140.758 174.234 144.391 173.013 145.841L173.117 152.531C173.117 152.531 187.016 153.41 197.062 147.122C197.574 146.801 197.576 146.056 197.067 145.731C194.643 144.19 188.82 140.593 187.531 140.758Z" fill="#3E6897"/>
<path d="M127.884 175.539C128.398 175.468 128.956 175.219 129.495 174.98C129.998 174.757 130.517 174.526 130.959 174.461C136.629 173.634 141.768 172.622 146.303 171.728C147.493 171.494 148.656 171.265 149.799 171.045C160.119 169.057 165.974 167.967 166.033 167.961C165.974 167.967 160.077 168.706 149.743 170.697C148.599 170.917 147.436 171.147 146.245 171.381C141.716 172.273 136.581 173.284 130.919 174.11C130.426 174.182 129.882 174.424 129.355 174.657C128.839 174.887 128.306 175.124 127.846 175.186C126.356 175.393 126.391 175.745 127.884 175.539Z" fill="#2B295E"/>
<path d="M105.131 211.056L105.229 211.083C108.724 204.845 112.487 197.316 115.981 189.318C116.515 188.095 117.056 186.834 117.59 185.57C118.178 184.176 118.763 182.761 119.333 181.365C119.486 180.99 119.558 180.536 119.613 180.075V180.073C119.511 179.924 119.412 179.769 119.312 179.616C119.311 179.628 119.311 179.64 119.308 179.652C119.248 180.212 119.186 180.793 119.012 181.222C118.445 182.617 117.858 184.031 117.27 185.423C116.735 186.685 116.194 187.945 115.663 189.167C112.174 197.152 108.62 204.828 105.131 211.056Z" fill="#2B295E"/>
<path d="M161.272 109.662L156.854 109.193C156.854 109.193 156.301 109.315 156.407 110.011C156.513 110.706 157.97 112.591 158.519 112.686C159.068 112.78 162.469 110.942 161.272 109.662Z" fill="#E0E0E0"/>
<path d="M156.284 104.704C156.284 104.704 157.021 107.988 158.959 109.576L155.969 113.466C155.969 113.466 152.345 109.177 152.452 106.107C152.452 106.107 155.325 104.817 156.284 104.704Z" fill="#D0D6EC"/>
<path d="M156.284 104.704C156.284 104.704 156.845 107.794 158.784 109.383L155.91 112.921C155.91 112.921 152.755 109.255 152.45 106.107C152.452 106.107 155.325 104.817 156.284 104.704Z" fill="#3E6897"/>
<path d="M166.351 104.704C166.351 104.704 161.777 109.039 158.785 109.383L160.833 114.494C160.833 114.494 169.744 109.215 169.77 106.053C169.769 106.053 167.317 104.732 166.351 104.704Z" fill="#D0D6EC"/>
<path d="M166.023 104.53C166.023 104.53 161.775 109.038 158.783 109.384L160.442 114.094C160.442 114.094 169.416 109.042 169.442 105.879C169.442 105.879 166.989 104.558 166.023 104.53Z" fill="#3E6897"/>
<path d="M159.202 112.169C159.202 112.169 160.041 120.074 160.189 122.719C160.608 130.159 160.761 152.522 160.761 152.522C160.761 152.522 160.981 154.474 159.678 156.032C158.375 157.589 157.014 158.656 157.014 158.656C157.014 158.656 155.101 156.983 154.344 153.839C153.84 151.747 155.05 134.189 156.272 122.492C156.886 116.614 157.9 112.01 157.9 112.01C157.9 112.01 158.9 111.836 159.202 112.169Z" fill="#E0E0E0"/>
<path d="M162.963 151.36L164.625 148.139C164.945 147.519 165.596 147.176 166.252 147.211C166.331 147.215 171.169 146.753 171.169 146.753C171.169 146.753 168.608 153.183 168.14 153.667C167.972 153.84 167.743 153.938 167.503 153.939C166.375 153.947 163.049 153.863 162.842 152.624C162.813 152.522 162.792 152.418 162.782 152.312C162.75 151.995 162.805 151.665 162.963 151.36Z" fill="#E7B2B6"/>
<path d="M173.012 145.842L169.791 146.515L169.138 152.55L173.117 152.532L173.012 145.842Z" fill="#2A588B"/>
<path d="M21.6298 143.842C22.4931 143.842 23.1991 144.548 23.1991 145.411V217.863C23.1991 218.726 22.4931 219.432 21.6298 219.432C20.7666 219.432 20.0605 218.726 20.0605 217.863V145.411C20.0605 144.548 20.7666 143.842 21.6298 143.842Z" fill="#D0D6EC"/>
<path d="M117.707 145.779H2.13649C0.961484 145.779 0 144.817 0 143.642C0 142.467 0.961484 141.506 2.13649 141.506H117.709C118.884 141.506 119.845 142.467 119.845 143.642C119.845 144.817 118.884 145.779 117.707 145.779Z" fill="#D0D6EC"/>
<path d="M99.0517 143.842C99.915 143.842 100.621 144.548 100.621 145.411V217.863C100.621 218.726 99.915 219.432 99.0517 219.432C98.1885 219.432 97.4824 218.726 97.4824 217.863V145.411C97.4824 144.548 98.1885 143.842 99.0517 143.842Z" fill="#D0D6EC"/>
<path d="M15.9352 138.804H2.6709V141.683H15.9352V138.804Z" fill="#F2D370"/>
<path d="M22.567 138.804H9.30273V141.683H22.567V138.804Z" fill="#E09139"/>
<path d="M101.664 140.532L94.2975 118.719H63.3086L71.4092 141.506H99.955H101.993H113.999V140.532H101.664Z" fill="#5E90C9"/>
<defs>
<linearGradient id="paint0_linear_532_588" x1="161.329" y1="110.206" x2="161.329" y2="96.3874" gradientUnits="userSpaceOnUse">
<stop offset="0.512" stop-color="#E7B2B6"/>
<stop offset="1" stop-color="#C98C93"/>
</linearGradient>
</defs>
</svg>
