<svg width="55" height="55" viewBox="0 0 55 55" fill="none" xmlns="http://www.w3.org/2000/svg">
<g opacity="0.95" filter="url(#filter0_d_532_1113)">
<circle cx="27.5" cy="23.5" r="23.5" fill="#253439"/>
</g>
<path d="M28.75 26.5203H28.98C29.31 26.5203 29.59 26.2203 29.59 25.8503C29.59 25.3803 29.48 25.3203 29.16 25.2103L28.75 25.0703V26.5203Z" fill="#FBFBFB"/>
<path d="M28 14C22.48 14 18 18.48 18 24C18 29.52 22.48 34 28 34C33.52 34 38 29.52 38 24C38 18.48 33.52 14 28 14ZM23.58 28.42C23.87 28.71 23.87 29.19 23.58 29.48C23.43 29.63 23.24 29.7 23.05 29.7C22.86 29.7 22.67 29.63 22.52 29.48C21.7985 28.7617 21.2265 27.9076 20.8368 26.9671C20.4472 26.0265 20.2478 25.0181 20.25 24C20.25 21.93 21.06 19.98 22.52 18.52C22.81 18.23 23.29 18.23 23.58 18.52C23.87 18.81 23.87 19.29 23.58 19.58C22.9979 20.1592 22.5364 20.848 22.2223 21.6067C21.9082 22.3654 21.7477 23.1789 21.75 24C21.75 25.67 22.4 27.24 23.58 28.42ZM29.65 23.78C30.61 24.12 31.08 24.79 31.08 25.84C31.08 27.04 30.14 28.01 28.97 28.01H28.74V28.19C28.74 28.6 28.4 28.94 27.99 28.94C27.58 28.94 27.24 28.6 27.24 28.19V28.01H27.21C25.94 28.01 24.9 26.94 24.9 25.63C24.9 25.22 25.24 24.88 25.65 24.88C26.06 24.88 26.4 25.22 26.4 25.63C26.4 26.12 26.76 26.51 27.21 26.51H27.24V24.53L26.34 24.21C25.38 23.87 24.91 23.2 24.91 22.15C24.91 20.95 25.85 19.98 27.02 19.98H27.25V19.8C27.25 19.39 27.59 19.05 28 19.05C28.41 19.05 28.75 19.39 28.75 19.8V19.98H28.78C30.05 19.98 31.09 21.05 31.09 22.36C31.09 22.77 30.75 23.11 30.34 23.11C29.93 23.11 29.59 22.77 29.59 22.36C29.59 21.87 29.23 21.48 28.78 21.48H28.75V23.46L29.65 23.78ZM33.48 29.48C33.33 29.63 33.14 29.7 32.95 29.7C32.76 29.7 32.57 29.63 32.42 29.48C32.2805 29.3389 32.2023 29.1484 32.2023 28.95C32.2023 28.7516 32.2805 28.5611 32.42 28.42C33.0021 27.8408 33.4636 27.152 33.7777 26.3933C34.0918 25.6346 34.2523 24.8211 34.25 24C34.25 22.33 33.6 20.76 32.42 19.58C32.2805 19.4389 32.2023 19.2484 32.2023 19.05C32.2023 18.8516 32.2805 18.6611 32.42 18.52C32.71 18.23 33.19 18.23 33.48 18.52C34.2015 19.2383 34.7735 20.0924 35.1632 21.0329C35.5528 21.9735 35.7522 22.9819 35.75 24C35.75 26.07 34.94 28.02 33.48 29.48Z" fill="#FBFBFB"/>
<path d="M26.4199 22.1605C26.4199 22.6305 26.5299 22.6905 26.8499 22.8005L27.2599 22.9405V21.4805H27.0299C26.6899 21.4805 26.4199 21.7905 26.4199 22.1605Z" fill="#FBFBFB"/>
<defs>
<filter id="filter0_d_532_1113" x="0" y="0" width="55" height="55" filterUnits="userSpaceOnUse" color-interpolation-filters="sRGB">
<feFlood flood-opacity="0" result="BackgroundImageFix"/>
<feColorMatrix in="SourceAlpha" type="matrix" values="0 0 0 0 0 0 0 0 0 0 0 0 0 0 0 0 0 0 127 0" result="hardAlpha"/>
<feOffset dy="4"/>
<feGaussianBlur stdDeviation="2"/>
<feComposite in2="hardAlpha" operator="out"/>
<feColorMatrix type="matrix" values="0 0 0 0 0 0 0 0 0 0 0 0 0 0 0 0 0 0 0.1 0"/>
<feBlend mode="normal" in2="BackgroundImageFix" result="effect1_dropShadow_532_1113"/>
<feBlend mode="normal" in="SourceGraphic" in2="effect1_dropShadow_532_1113" result="shape"/>
</filter>
</defs>
</svg>
