<svg width="55" height="55" viewBox="0 0 55 55" fill="none" xmlns="http://www.w3.org/2000/svg">
<g opacity="0.95" filter="url(#filter0_d_532_1129)">
<circle cx="27.5" cy="23.5" r="23.5" fill="#253439"/>
</g>
<path d="M29.4089 14.513C28.5053 14.1467 27.4947 14.1467 26.5911 14.513L24.4006 15.4011L33.9928 19.1314L37.3671 17.8276C37.2312 17.7149 37.0769 17.6216 36.9075 17.553L29.4089 14.513ZM38 19.1912L28.7498 22.7651V25.0641C29.9361 23.7946 31.6254 23.001 33.5 23.001C35.2465 23.001 36.8321 23.6898 38 24.8105V19.1912ZM27.2498 22.7651V27.7103C27.0871 28.2791 27 28.8799 27 29.501C27 30.1221 27.0871 30.7228 27.2498 31.2917V33.6882C27.0261 33.6425 26.8056 33.5762 26.5911 33.4892L19.0925 30.4493C18.4321 30.1815 18 29.5401 18 28.8275V19.1913L27.2498 22.7651ZM18.6327 17.8277L27.9998 21.4468L31.9168 19.9335L22.3743 16.2225L19.0925 17.553C18.9231 17.6217 18.7687 17.715 18.6327 17.8277ZM33.5 35.001C36.5376 35.001 39 32.5385 39 29.501C39 26.4634 36.5376 24.001 33.5 24.001C30.4624 24.001 28 26.4634 28 29.501C28 32.5385 30.4624 35.001 33.5 35.001ZM36.1464 27.1474C36.3417 26.9522 36.6583 26.9522 36.8536 27.1474C37.0488 27.3427 37.0488 27.6593 36.8536 27.8545L32.8536 31.8545C32.6583 32.0498 32.3417 32.0498 32.1464 31.8545L30.1464 29.8545C29.9512 29.6593 29.9512 29.3427 30.1464 29.1474C30.3417 28.9522 30.6583 28.9522 30.8536 29.1474L32.5 30.7939L36.1464 27.1474Z" fill="#FBFBFB"/>
<defs>
<filter id="filter0_d_532_1129" x="0" y="0" width="55" height="55" filterUnits="userSpaceOnUse" color-interpolation-filters="sRGB">
<feFlood flood-opacity="0" result="BackgroundImageFix"/>
<feColorMatrix in="SourceAlpha" type="matrix" values="0 0 0 0 0 0 0 0 0 0 0 0 0 0 0 0 0 0 127 0" result="hardAlpha"/>
<feOffset dy="4"/>
<feGaussianBlur stdDeviation="2"/>
<feComposite in2="hardAlpha" operator="out"/>
<feColorMatrix type="matrix" values="0 0 0 0 0 0 0 0 0 0 0 0 0 0 0 0 0 0 0.1 0"/>
<feBlend mode="normal" in2="BackgroundImageFix" result="effect1_dropShadow_532_1129"/>
<feBlend mode="normal" in="SourceGraphic" in2="effect1_dropShadow_532_1129" result="shape"/>
</filter>
</defs>
</svg>
