<svg width="33" height="30" viewBox="0 0 33 30" fill="none" xmlns="http://www.w3.org/2000/svg">
<path id="Star 2" d="M14.3684 3.76539C15.0823 1.78102 17.8887 1.78103 18.6026 3.76538L19.8131 7.12968C20.6341 9.41155 22.7985 10.933 25.2235 10.933H28.2013C30.436 10.933 31.304 13.8383 29.4356 15.0643L27.7516 16.1691C25.5282 17.628 24.5952 20.4211 25.4955 22.9233L26.2997 25.1585C27.0313 27.1918 24.755 28.9869 22.9483 27.8015L19.6398 25.6307C17.7247 24.3741 15.2463 24.3741 13.3311 25.6307L10.0227 27.8015C8.21602 28.9869 5.9397 27.1918 6.67125 25.1585L7.47546 22.9233C8.37575 20.4211 7.44275 17.628 5.21935 16.1691L3.53539 15.0643C1.66696 13.8383 2.53499 10.933 4.7697 10.933H7.74744C10.1725 10.933 12.3369 9.41156 13.1579 7.12968L14.3684 3.76539Z" stroke="#253439" stroke-width="3.5"/>
</svg>
