<svg width="32" height="32" viewBox="0 0 32 32" fill="none" xmlns="http://www.w3.org/2000/svg">
<path d="M16 0C7.16337 0 0 7.16337 0 16C0 24.8366 7.16337 32 16 32C24.8366 32 32 24.8366 32 16C32 7.16337 24.8366 0 16 0Z" fill="#40B3E0"/>
<path d="M23.7847 9.20363L20.9269 23.612C20.9269 23.612 20.5273 24.6113 19.4282 24.1316L12.8334 19.0756L10.4354 17.9166L6.39868 16.5576C6.39868 16.5576 5.77918 16.3379 5.71918 15.8583C5.65931 15.3786 6.41868 15.1189 6.41868 15.1189L22.4657 8.82388C22.4657 8.82388 23.7847 8.24438 23.7847 9.20363Z" fill="white"/>
<path d="M12.3267 23.45C12.3267 23.45 12.1342 23.432 11.8943 22.6725C11.6545 21.9131 10.4355 17.9164 10.4355 17.9164L20.1277 11.7614C20.1277 11.7614 20.6873 11.4216 20.6673 11.7614C20.6673 11.7614 20.7672 11.8212 20.4674 12.101C20.1677 12.3809 12.8535 18.9555 12.8535 18.9555" fill="#D2E5F1"/>
</svg>
