<svg width="22" height="14" viewBox="0 0 22 14" fill="none" xmlns="http://www.w3.org/2000/svg">
<path d="M0.566719 14V11.84L3.58672 8.74C4.16005 8.15333 4.65339 7.64 5.06672 7.2C5.48005 6.74667 5.79339 6.32 6.00672 5.92C6.23339 5.52 6.34672 5.09333 6.34672 4.64C6.34672 3.97333 6.16005 3.52667 5.78672 3.3C5.41339 3.06 4.81339 2.94 3.98672 2.94C3.65339 2.94 3.28672 2.96 2.88672 3C2.48672 3.04 2.10005 3.08667 1.72672 3.14C1.36672 3.19333 1.05339 3.24667 0.786719 3.3L0.646719 1.18C0.940052 1.1 1.30005 1.01333 1.72672 0.919999C2.16672 0.826666 2.64005 0.746666 3.14672 0.68C3.66672 0.599999 4.17339 0.559999 4.66672 0.559999C6.10672 0.559999 7.20672 0.866666 7.96672 1.48C8.72672 2.08 9.10672 3.01333 9.10672 4.28C9.10672 4.97333 9.00672 5.58667 8.80672 6.12C8.62005 6.65333 8.32005 7.16667 7.90672 7.66C7.50672 8.14 6.97339 8.66667 6.30672 9.24L3.66672 11.76H9.28672V14H0.566719ZM17.14 14V11.8H11.14V9.8L14.14 0.799999H17.22L13.88 9.5H17.14L17.3 6.1L19.86 6.06V9.5H21.08V11.8H19.86V14H17.14Z" fill="white"/>
</svg>
