<svg width="163" height="204" viewBox="0 0 163 204" fill="none" xmlns="http://www.w3.org/2000/svg">
<path d="M38.8291 148.888H45.4502V203.045H38.8291V148.888Z" fill="#667378"/>
<path d="M38.8295 148.888H41.4277V203.037H38.8295V148.888Z" fill="#E8F2FC"/>
<path d="M23.1221 198.601H59.3129C60.5382 198.601 61.5273 199.59 61.5273 200.815C61.5273 202.04 60.5382 203.029 59.3129 203.029H23.1221C21.8968 203.029 20.9077 202.033 20.9077 200.815C20.9003 199.597 21.8968 198.601 23.1221 198.601Z" fill="#667378"/>
<path d="M23.1221 198.601H59.3129C60.1175 198.601 60.8187 199.036 61.21 199.678H29.8613C28.636 199.678 27.6469 200.667 27.6469 201.893C27.6469 202.313 27.7724 202.697 27.9717 203.029H23.1221C21.8968 203.029 20.9077 202.033 20.9077 200.815C20.9003 199.597 21.8968 198.601 23.1221 198.601Z" fill="#E8F2FC"/>
<path d="M38.8291 148.888H45.4502V153.708H38.8291V148.888Z" fill="#E8F2FC"/>
<path d="M4.52825 73.3834C5.45831 72.97 6.49169 72.7412 7.59151 72.7412H44.8674C48.5064 72.7412 51.6361 75.3247 52.3226 78.9046L64.0073 139.971C64.1919 140.952 64.1845 141.934 64.0073 142.842C63.9999 142.864 63.9999 142.886 63.9925 142.901H74.356C76.0611 142.901 77.4414 144.281 77.4414 145.987C77.4414 147.692 76.0611 149.072 74.356 149.072H40.8593V148.976H19.2688C15.6298 148.976 12.5001 146.385 11.8137 142.813L0.13633 81.7465C-0.55014 78.1591 1.41331 74.7563 4.52825 73.3834Z" fill="#FF9933"/>
<path d="M0.136436 81.7615L11.8064 142.828C12.4855 146.4 15.6152 148.991 19.2616 148.991H40.8521V149.087H74.3413C76.0464 149.087 77.4268 147.707 77.4268 146.002C77.4268 144.296 76.0464 142.916 74.3413 142.916H63.9779C63.9853 142.894 63.9927 142.879 63.9927 142.85C63.9041 142.857 63.8007 142.857 63.7048 142.857H26.4363C21.4317 142.857 17.1136 139.299 16.1762 134.383L4.51358 73.3984C1.41341 74.764 -0.542656 78.1594 0.136436 81.7615Z" fill="#E8F2FC"/>
<path d="M16.1167 134.007L16.1905 134.376C17.1279 139.292 21.4387 142.85 26.4506 142.85H63.7191C63.8077 142.85 63.9111 142.85 64.007 142.842C64.007 142.864 63.9996 142.887 63.9923 142.909H74.3557C75.8984 142.909 77.1828 144.045 77.4042 145.529V137.181C77.4042 137.166 77.4116 137.144 77.4116 137.114C77.6552 135.461 76.2675 134.007 74.5919 134.007H16.1167Z" fill="#667378"/>
<path d="M4.52787 73.3834L16.1904 134.368C17.1279 139.284 21.446 142.849 26.4431 142.849H63.7191C63.815 142.849 63.911 142.849 64.0069 142.842C64.1841 141.927 64.1915 140.952 64.0069 139.971L52.3222 78.9046C51.6358 75.3247 48.5061 72.7412 44.867 72.7412H7.59113C6.49131 72.7412 5.45792 72.97 4.52787 73.3834Z" fill="#667378"/>
<path d="M92.8612 58.7461H156.319C157.795 58.7461 158.924 60.0526 158.718 61.5141L153.278 98.8195C153.108 100.008 152.082 100.894 150.879 100.894H87.4211C85.9448 100.894 84.8155 99.5872 85.0221 98.1257L90.4548 60.8203C90.6394 59.6245 91.658 58.7461 92.8612 58.7461Z" fill="#1D54B5"/>
<path d="M101.741 58.7461H156.319C157.795 58.7461 158.924 60.0526 158.718 61.5141L156.319 78.0041C150.465 80.5654 143.837 82.0196 136.795 82.0196C118.593 82.0196 107.867 72.35 101.741 58.7461Z" fill="#3070CE"/>
<path d="M121.649 87.2236H129.746H133.658C134.699 87.2236 135.496 88.1389 135.341 89.1723L131.702 114.158C131.702 114.232 131.695 114.321 131.687 114.394L131.525 115.376C131.407 116.21 130.683 116.83 129.842 116.83H125.937H117.98L121.649 87.2236Z" fill="#4286E8"/>
<path d="M104.104 115.081C104.118 114.144 104.886 113.383 105.823 113.383H114.91C116.246 113.383 117.383 112.394 117.567 111.066L120.232 91.6009H118.652C117.619 91.6009 116.822 90.6782 116.969 89.6522L117.132 88.6631C117.25 87.829 117.973 87.209 118.815 87.209H121.966C123.406 87.209 124.513 88.4786 124.321 89.9032L120.999 114.66C120.837 115.893 119.782 116.816 118.534 116.816H105.823C104.864 116.83 104.089 116.041 104.104 115.081Z" fill="#1D54B5"/>
<path d="M110.636 95.5049C110.636 96.1323 111.145 96.6416 111.772 96.6416C112.4 96.6416 112.909 96.1323 112.909 95.5049C112.909 94.8775 112.4 94.3682 111.772 94.3682C111.145 94.3682 110.636 94.8775 110.636 95.5049Z" fill="#4286E8"/>
<path d="M104.797 95.5049C104.797 96.1323 105.306 96.6416 105.934 96.6416C106.561 96.6416 107.07 96.1323 107.07 95.5049C107.07 94.8775 106.561 94.3682 105.934 94.3682C105.306 94.3682 104.797 94.8775 104.797 95.5049Z" fill="#4286E8"/>
<path d="M100.812 96.6416C100.184 96.6416 99.6748 96.1327 99.6748 95.5049C99.6748 94.8771 100.184 94.3682 100.812 94.3682C101.439 94.3682 101.948 94.8771 101.948 95.5049C101.948 96.1327 101.439 96.6416 100.812 96.6416Z" fill="#4286E8"/>
<path d="M94.0944 76.048L90.7802 98.8195C90.6104 100.008 89.5844 100.894 88.3812 100.894H87.429C85.9527 100.894 84.8234 99.5872 85.0301 98.1257L90.4628 60.8203C90.6325 59.6319 91.6585 58.7461 92.8617 58.7461H93.8139C95.2902 58.7461 96.4195 60.0526 96.2128 61.5141L94.0944 76.048Z" fill="#4286E8"/>
<path d="M118.099 62.8203H140.257C140.796 62.8203 141.21 63.3075 141.128 63.8389L140.981 64.7542C140.914 65.1824 140.545 65.4924 140.11 65.4924H117.951C117.412 65.4924 116.999 65.0052 117.08 64.4737L117.228 63.5584C117.301 63.1303 117.67 62.8203 118.099 62.8203Z" fill="#4286E8"/>
<path d="M28.1418 74.1878C28.843 68.7846 36.7558 71.3164 33.7885 66.2823C31.0426 61.6247 34.2388 59.5653 38.018 58.8419C42.8381 57.9193 40.0996 56.0222 42.4468 51.527C45.4215 45.8138 50.0201 47.5115 50.0201 47.5115C50.0201 47.5115 55.7776 44.3818 61.6458 49.3347C67.8314 54.5534 66.4806 59.1667 63.1737 65.4999C61.4981 68.7034 63.5576 71.5526 65.0191 77.443C66.7758 84.507 58.0511 98.7235 39.391 89.1203C32.1646 85.4001 27.7653 77.0518 28.1418 74.1878Z" fill="#13448C"/>
<path d="M53.9174 75.664C53.9174 75.664 56.7666 75.9666 59.6674 78.8675C61.6161 80.8162 71.1602 99.8084 71.1602 99.8084L79.9662 72.8369L86.4102 73.3315C86.4102 73.3315 79.1469 116.704 73.5001 116.786C68.156 116.859 51.1936 88.7807 51.1936 88.7807L53.9174 75.664Z" fill="#EE7BB7"/>
<path d="M35.7077 87.0315L30.0609 108.164L63.4395 110.895L63.2845 116.926C63.2845 116.926 24.798 117.096 17.5495 117.022C12.7221 116.97 21.8085 78.7422 27.6103 74.3724C32.1941 70.9106 44.8753 71.8332 44.8753 71.8332L53.9101 75.6642C53.9101 75.6642 64.3917 86.0424 58.1323 95.8079C53.2015 103.499 59.483 118.447 59.483 118.447L38.1435 119.716L19.0848 119.893L35.7077 87.0315Z" fill="#EE7BB7"/>
<path d="M57.01 110.371L55.8142 110.15C54.6701 105.153 54.4634 98.3247 57.0764 95.04C62.2434 88.5371 56.9214 79.0963 53.9393 75.6787H53.9467C54.4265 76.1585 64.2511 86.271 58.1541 95.8077C55.2237 100.362 55.9397 106.289 57.01 110.371Z" fill="#EC56A3"/>
<path d="M63.3511 112.291C66.8794 112.424 70.6587 113.686 72.4229 115.76C72.8141 116.218 72.4819 116.934 71.8766 116.934H63.2921L63.3511 112.291Z" fill="#FFB19E"/>
<path d="M44.8755 64.7325V71.8629L51.2604 79.1778L51.3047 79.0966L53.0467 75.3764V71.3757C56.2354 70.9254 59.0477 68.5117 59.8006 65.0572L60.7012 60.1265C60.7012 60.1265 55.9402 59.6246 52.1535 55.7715C52.1535 55.7715 51.0168 57.8604 49.3855 59.4769C48.1971 60.6579 46.5585 60.9458 45.9311 61.588C45.0896 62.4442 44.7869 63.5588 44.8755 64.7325Z" fill="#FFB19E"/>
<path d="M46.6244 58.5616C46.6244 58.5616 46.868 55.5574 47.9974 52.9961C49.3039 50.0435 51.1418 46.5816 54.958 46.5743C54.958 46.5743 45.687 45.1349 44.1369 58.0375L46.6244 58.5616Z" fill="#CCCCCC"/>
<path d="M41.0818 60.6805C41.3475 58.2003 43.429 56.3845 45.7246 56.6355C48.0202 56.8865 49.6663 59.0935 49.4006 61.581C49.1348 64.0611 47.0533 65.877 44.7577 65.626C42.4621 65.375 40.8087 63.1606 41.0818 60.6805Z" fill="#CCCCCC"/>
<path d="M43.9679 65.1831C46.1823 65.4193 48.1826 63.6773 48.441 61.2857C48.6772 59.0713 47.3338 57.0857 45.3777 56.6133C45.4884 56.6133 45.6065 56.6207 45.7246 56.628C48.0202 56.879 49.6663 59.086 49.4006 61.5736C49.1348 64.0537 47.0533 65.8695 44.7577 65.6185C44.0491 65.5447 43.4069 65.279 42.8607 64.8804C43.2002 65.0354 43.5767 65.1388 43.9679 65.1831Z" fill="#1D54B5"/>
<path d="M42.6828 60.7915C42.8157 59.5883 43.8196 58.7099 44.9342 58.828C46.0487 58.9461 46.8459 60.0238 46.7131 61.227C46.5802 62.4301 45.5763 63.3085 44.4618 63.1904C43.3545 63.0723 42.5574 61.9946 42.6828 60.7915Z" fill="#1D54B5"/>
<path d="M47.0089 68.3496C47.2746 68.6965 48.7878 70.6009 49.9984 71.6196C50.4855 72.0255 50.7439 72.6308 50.7439 73.2582L51.3049 79.0969L53.0469 75.3767V71.3907L53.0026 71.3465C53.0026 71.3465 48.9797 70.7412 47.0089 68.3496Z" fill="#F48F7A"/>
<path d="M49.7246 68.0464L49.791 67.6404C47.4585 67.2418 45.7608 64.1047 45.7386 64.0752L45.377 64.2671C45.4508 64.4074 47.2002 67.6109 49.7246 68.0464Z" fill="#CCCCCC"/>
<path d="M49.2898 67.8103C49.3415 67.4264 49.9246 67.2197 50.5815 67.3378C51.2385 67.4633 51.7256 67.8693 51.674 68.2531C51.6223 68.637 51.0392 68.8436 50.3822 68.7255C49.7253 68.6074 49.2381 68.1941 49.2898 67.8103Z" fill="#CCCCCC"/>
<path d="M80.4904 73.0069C80.4904 73.0069 79.5825 65.5443 80.4019 65.2712C81.2212 64.9981 82.0405 68.1868 82.0405 68.1868C82.0405 68.1868 85.5024 61.455 87.8644 62.1784C90.2265 62.9018 85.8788 73.2652 85.8788 73.2652L80.4904 73.0069Z" fill="#FFB19E"/>
<path d="M57.0254 110.328L30.7403 108.128C29.8398 108.054 29.205 107.213 29.3748 106.327C30.3491 101.411 33.154 87.3199 33.3238 87.7407C33.5305 88.25 30.6813 104.327 34.0324 105.951C36.328 107.072 57.0254 110.328 57.0254 110.328Z" fill="#EC56A3"/>
<path d="M39.1482 188.09C39.3401 188.134 39.5173 188.245 39.6502 188.43C41.3257 190.755 42.8094 191.308 45.7398 191.7C45.9169 191.722 46.0941 191.788 46.2934 191.884C46.0646 191.545 45.0902 189.943 45.7619 188.503C46.5222 186.88 47.4375 185.698 47.4375 185.698L43.1489 183.145C43.1489 183.145 40.5138 186.178 39.1482 188.09Z" fill="#FFB19E"/>
<path d="M35.9745 193.537C36.7348 194.261 48.9657 200.948 51.874 202.631C52.2283 202.838 52.9516 203.214 53.0771 202.823C53.2838 202.218 47.9914 192.009 45.74 191.699C42.8096 191.301 41.3186 190.755 39.6504 188.422C39.3035 187.935 38.5727 187.935 38.2406 188.437C37.0669 190.223 35.3618 192.954 35.9745 193.537Z" fill="#13448C"/>
<path d="M59.3284 118.417C59.3284 118.417 89.0163 132.183 89.8061 141.727C90.5073 150.216 46.7506 189.049 46.7506 189.049L39.8342 186.2L63.7794 147.603C63.7794 147.603 38.4096 135.099 32.2093 120.041L59.3284 118.417Z" fill="#13448C"/>
<path d="M78.2467 139.218C80.2618 143.093 81.7381 148.504 82.7715 153.412C79.413 157.406 75.1687 161.894 70.7915 166.315C74.0319 153.523 76.9033 140.702 75.9068 138.864C74.0098 135.357 61.4319 126.05 52.5448 121.414C52.5448 121.414 73.5743 130.227 78.2467 139.218Z" fill="#09326D"/>
<path d="M56.6346 196.062C56.8266 196.011 57.0332 196.018 57.2399 196.114C59.8381 197.324 61.403 197.081 64.1562 195.996C64.3186 195.929 64.5105 195.892 64.7246 195.885C64.3629 195.701 62.7243 194.778 62.6135 193.191C62.4807 191.405 62.7021 189.921 62.7021 189.921L57.7123 189.788C57.7123 189.788 56.9004 193.722 56.6346 196.062Z" fill="#FFB19E"/>
<path d="M56.5312 202.728C57.5499 202.994 71.9878 202.831 75.3464 202.876C75.7597 202.883 76.0697 202.514 75.9959 202.108C75.8778 201.48 66.2747 195.155 64.1562 195.989C61.403 197.074 59.8381 197.325 57.2399 196.107C56.6936 195.848 56.0662 196.21 56.0219 196.808C55.8669 198.934 55.7119 202.521 56.5312 202.728Z" fill="#13448C"/>
<path d="M19.2031 119.834C19.2031 119.834 16.7156 136.649 31.7883 140.901C43.6723 144.259 56.4052 145.965 56.4052 145.965L55.4899 193.685H63.4175C63.4175 193.685 77.9662 142.658 75.9068 138.856C73.5669 134.538 55.0618 121.436 47.149 119.074L19.2031 119.834Z" fill="#1D54B5"/>
<path opacity="0.13" d="M56.4055 145.972C56.4055 145.972 43.6652 144.26 31.7886 140.909C16.7158 136.65 19.2033 119.842 19.2033 119.842L28.5334 119.584C31.3383 125.615 40.4543 140.54 62.5615 142.149L57.557 193.693H55.4975L56.4055 145.972Z" fill="#0E367C"/>
<path d="M154.489 203.031L157.803 203.008L144.007 120.093L140.671 120.071L154.489 203.031Z" fill="#667378"/>
<path d="M17.8297 203.008L14.3088 203.03L31.4114 119.148L34.9102 119.178L17.8297 203.008Z" fill="#667378"/>
<path d="M141.579 124.67L140.671 120.071L144.007 120.093L144.915 124.67H141.579Z" fill="#E4EDF7"/>
<path d="M30.2904 124.67L31.4124 119.148L34.9111 119.178L33.7966 124.67H30.2904Z" fill="#E4EDF7"/>
<path d="M11.2827 116.882H160.888C161.818 116.882 162.571 117.635 162.571 118.565C162.571 119.495 161.818 120.248 160.888 120.248H11.2827C10.3527 120.248 9.59979 119.495 9.59979 118.565C9.59979 117.635 10.3527 116.882 11.2827 116.882Z" fill="#667378"/>
<path d="M152.554 39.92L147.214 8.99C147.004 7.56 145.774 6.5 144.334 6.5L94.6444 7.04C92.8644 7.04 91.5044 8.62 91.7644 10.37L96.4544 37.5L98.8244 52.86C98.9544 53.67 100.004 53.91 100.464 53.22L106.784 43.7L149.674 43.23C151.454 43.25 152.814 41.68 152.554 39.92Z" fill="#1D54B5"/>
<path d="M134.894 16.0996H106.094C105.594 16.0996 105.224 16.5396 105.304 17.0296L105.444 17.8696C105.504 18.2596 105.844 18.5496 106.234 18.5496H135.034C135.534 18.5496 135.904 18.1096 135.824 17.6196L135.684 16.7796C135.624 16.3796 135.284 16.0996 134.894 16.0996Z" fill="white"/>
<path d="M135.854 23.7393H107.054C106.554 23.7393 106.184 24.1793 106.264 24.6693L106.404 25.5093C106.464 25.8993 106.804 26.1893 107.194 26.1893H135.994C136.494 26.1893 136.864 25.7493 136.784 25.2593L136.644 24.4193C136.584 24.0293 136.254 23.7393 135.854 23.7393Z" fill="white"/>
<path d="M128.994 32.04L115.664 32.06C115.164 32.06 114.794 32.5 114.874 32.99L115.014 33.83C115.074 34.22 115.414 34.51 115.804 34.51L129.134 34.49C129.634 34.49 130.004 34.05 129.924 33.56L129.784 32.72C129.734 32.32 129.394 32.04 128.994 32.04Z" fill="white"/>
<path d="M86.9948 39.7C87.6348 40.24 88.6048 39.68 88.4548 38.85L82.0848 2.12C81.9048 0.909999 80.8648 0 79.6348 0L37.4748 0.470001C35.9648 0.470001 34.8148 1.81 35.0248 3.3L39.5548 29.54C39.7348 30.75 40.7748 31.66 42.0048 31.66L74.4748 31.3C76.0248 31.28 77.5248 31.82 78.7148 32.81L86.9948 39.7Z" fill="#EE7BB7"/>
<path d="M73.8643 11.0303H45.0743C44.5743 11.0303 44.2043 11.4703 44.2843 11.9603L44.4243 12.8003C44.4843 13.1903 44.8243 13.4803 45.2143 13.4803H74.0143C74.5143 13.4803 74.8843 13.0403 74.8043 12.5503L74.6643 11.7103C74.5943 11.3203 74.2643 11.0303 73.8643 11.0303Z" fill="white"/>
<path d="M74.8343 18.6699H46.0343C45.5343 18.6699 45.1643 19.1099 45.2443 19.5999L45.3843 20.4399C45.4443 20.8299 45.7843 21.1199 46.1743 21.1199H74.9743C75.4743 21.1199 75.8443 20.6799 75.7643 20.1899L75.6243 19.3499C75.5643 18.9599 75.2243 18.6699 74.8343 18.6699Z" fill="white"/>
</svg>
