<svg width="46" height="42" viewBox="0 0 46 42" fill="none" xmlns="http://www.w3.org/2000/svg">
<g id="Group">
<g id="Group_2">
<g id="Group_3">
<path id="Vector" d="M7.0001 10H12.9501C13.5001 10 13.9501 10.45 13.9501 11C13.9501 11.55 13.5001 12 12.9501 12H9.5001L14.6001 17.1L16.3001 15.45C17.1001 14.65 18.3001 14.65 19.1001 15.45L27.5001 23.85L30.3501 21C31.1001 20.25 32.4001 20.25 33.1501 21L38.0501 25.9C38.4501 26.3 38.4501 26.9 38.0501 27.3C37.8501 27.5 37.6001 27.6 37.3501 27.6C37.1001 27.6 36.8501 27.5 36.6501 27.3L31.7501 22.4L28.2001 25.95C27.8001 26.35 27.2001 26.35 26.8001 25.95L17.7001 16.85L15.3001 19.2C14.9001 19.6 14.3001 19.6 13.9001 19.2L8.0001 13.3V16.95C8.0001 17.5 7.5501 17.95 7.0001 17.95C6.4501 17.95 6.0001 17.5 6.0001 16.95V11C6.0001 10.45 6.4501 10 7.0001 10Z" fill="white"/>
<path id="Vector_2" d="M5 0H41C43.75 0 46 2.25 46 5V37C46 39.75 43.75 42 41 42H5C2.25 42 0 39.75 0 37V5C0 2.25 2.25 0 5 0ZM2 37C2 38.65 3.35 40 5 40H41C42.65 40 44 38.65 44 37V5C44 3.35 42.65 2 41 2H5C3.35 2 2 3.35 2 5V37Z" fill="white"/>
<path id="Vector_3" d="M40.45 28.3L41.45 29.3C41.85 29.7 41.85 30.3 41.45 30.7C41.25 30.9 41 31 40.75 31C40.5 31 40.25 30.9 40.05 30.7L39.05 29.7C38.65 29.3 38.65 28.7 39.05 28.3C39.45 27.9 40.05 27.9 40.45 28.3Z" fill="white"/>
</g>
</g>
</g>
</svg>
