<svg width="170" height="35" viewBox="0 0 170 35" fill="none" xmlns="http://www.w3.org/2000/svg">
<path d="M169 4.7041C89.0255 68.0274 4 8.47253 4 4.70436" stroke="#253439" stroke-width="2" stroke-dasharray="4 4"/>
<path d="M-3.13176e-05 2.004C-0.00229611 1.45172 0.443579 1.00217 0.995859 0.999909L9.99578 0.963C10.5481 0.960736 10.9976 1.40661 10.9999 1.95889C11.0021 2.51117 10.5563 2.96072 10.004 2.96298L2.00405 2.99579L2.03686 10.9957C2.03913 11.548 1.59325 11.9976 1.04097 11.9998C0.488689 12.0021 0.0391419 11.5562 0.036877 11.0039L-3.13176e-05 2.004ZM1.00576 3.4141L0.295759 2.7099L1.70416 1.2899L2.41416 1.9941L1.00576 3.4141Z" fill="#253439"/>
</svg>
