<svg width="38" height="38" viewBox="0 0 38 38" fill="none" xmlns="http://www.w3.org/2000/svg">
<g filter="url(#filter0_d_532_131)">
<path d="M33.9753 14.1154C33.4654 5.41555 25.5614 -1.2893 16.4576 0.21067C10.1884 1.24565 5.16408 6.33053 4.18921 12.6004C3.61928 16.2303 4.36918 19.6652 6.00397 22.5002L4.66915 27.4651C4.36918 28.59 5.40405 29.61 6.51391 29.295L11.4033 27.945C13.623 29.25 16.2176 30 18.9923 30C27.4512 30 34.4703 22.5452 33.9753 14.1154ZM26.3263 20.5802C25.9646 21.3223 25.3467 21.9083 24.5866 22.2302C24.1366 22.4252 23.6417 22.5152 23.1167 22.5152C22.3518 22.5152 21.5269 22.3352 20.6721 21.9602C19.7609 21.5601 18.896 21.0622 18.0924 20.4752C17.2225 19.8452 16.4126 19.1402 15.6327 18.3753C14.8528 17.5953 14.1629 16.7703 13.533 15.9153C12.9181 15.0603 12.4231 14.2054 12.0632 13.3504C11.7032 12.4954 11.5233 11.6704 11.5233 10.8904C11.5233 10.3804 11.6132 9.88545 11.7932 9.43546C11.9732 8.97047 12.2582 8.55048 12.6631 8.17549C13.143 7.6955 13.668 7.47051 14.2229 7.47051C14.4329 7.47051 14.6428 7.51551 14.8378 7.6055C15.0328 7.6955 15.2128 7.8305 15.3478 8.02549L17.0875 10.4854C17.2225 10.6804 17.3275 10.8454 17.3875 11.0104C17.4625 11.1754 17.4925 11.3254 17.4925 11.4754C17.4925 11.6554 17.4325 11.8354 17.3275 12.0154C17.2225 12.1954 17.0875 12.3754 16.9076 12.5554L16.3376 13.1554C16.2476 13.2454 16.2176 13.3354 16.2176 13.4554C16.2176 13.5154 16.2326 13.5754 16.2476 13.6354C16.2776 13.6954 16.2926 13.7404 16.3076 13.7854C16.4426 14.0404 16.6826 14.3554 17.0125 14.7453C17.7147 15.5706 18.4821 16.338 19.3072 17.0403C19.6972 17.3703 20.0271 17.5953 20.2821 17.7303C20.3271 17.7453 20.3721 17.7753 20.4171 17.7903C20.4771 17.8203 20.5371 17.8203 20.6121 17.8203C20.7471 17.8203 20.837 17.7753 20.927 17.6853L21.497 17.1153C21.6919 16.9203 21.8719 16.7853 22.0369 16.6953C22.2169 16.5903 22.3818 16.5303 22.5768 16.5303C22.7268 16.5303 22.8768 16.5603 23.0418 16.6353C23.2067 16.7103 23.3867 16.8003 23.5667 16.9353L26.0564 18.7053C26.2513 18.8403 26.3863 19.0052 26.4763 19.1852C26.5513 19.3802 26.5963 19.5602 26.5963 19.7702C26.5063 20.0252 26.4463 20.3102 26.3263 20.5802Z" fill="#43C02E"/>
</g>
<defs>
<filter id="filter0_d_532_131" x="0" y="0" width="38" height="38" filterUnits="userSpaceOnUse" color-interpolation-filters="sRGB">
<feFlood flood-opacity="0" result="BackgroundImageFix"/>
<feColorMatrix in="SourceAlpha" type="matrix" values="0 0 0 0 0 0 0 0 0 0 0 0 0 0 0 0 0 0 127 0" result="hardAlpha"/>
<feOffset dy="4"/>
<feGaussianBlur stdDeviation="2"/>
<feComposite in2="hardAlpha" operator="out"/>
<feColorMatrix type="matrix" values="0 0 0 0 0 0 0 0 0 0 0 0 0 0 0 0 0 0 0.1 0"/>
<feBlend mode="normal" in2="BackgroundImageFix" result="effect1_dropShadow_532_131"/>
<feBlend mode="normal" in="SourceGraphic" in2="effect1_dropShadow_532_131" result="shape"/>
</filter>
</defs>
</svg>
