<svg width="50" height="48" viewBox="0 0 50 48" fill="none" xmlns="http://www.w3.org/2000/svg">
<path d="M22.8601 4.24898C23.5337 2.17603 26.4663 2.17603 27.1399 4.24898L30.0711 13.2703C30.8408 15.6394 33.0486 17.2434 35.5396 17.2434L45.0252 17.2434C47.2048 17.2434 48.1111 20.0326 46.3477 21.3137L38.6737 26.8892C36.6584 28.3534 35.8152 30.9487 36.5849 33.3179L39.5161 42.3392C40.1897 44.4121 37.8171 46.1359 36.0537 44.8547L28.3798 39.2793C26.3645 37.8151 23.6355 37.8151 21.6202 39.2793L13.9463 44.8547C12.1829 46.1359 9.81033 44.4121 10.4839 42.3392L13.4151 33.3179C14.1848 30.9487 13.3416 28.3534 11.3263 26.8892L3.65229 21.3137C1.88894 20.0326 2.79518 17.2434 4.97481 17.2434L14.4604 17.2434C16.9514 17.2434 19.1592 15.6394 19.9289 13.2703L22.8601 4.24898Z" stroke="#253439" stroke-width="3.5"/>
</svg>
