<svg width="16" height="16" viewBox="0 0 16 16" fill="none" xmlns="http://www.w3.org/2000/svg">
<path d="M5.3335 3.83325C5.06016 3.83325 4.8335 3.60659 4.8335 3.33325V1.33325C4.8335 1.05992 5.06016 0.833252 5.3335 0.833252C5.60683 0.833252 5.8335 1.05992 5.8335 1.33325V3.33325C5.8335 3.60659 5.60683 3.83325 5.3335 3.83325ZM10.6668 3.83325C10.3935 3.83325 10.1668 3.60659 10.1668 3.33325V1.33325C10.1668 1.05992 10.3935 0.833252 10.6668 0.833252C10.9402 0.833252 11.1668 1.05992 11.1668 1.33325V3.33325C11.1668 3.60659 10.9402 3.83325 10.6668 3.83325ZM5.66683 9.66525C5.58016 9.66525 5.4935 9.64525 5.4135 9.61192C5.32683 9.57859 5.26016 9.53192 5.1935 9.47192C5.0735 9.34525 5.00016 9.17859 5.00016 8.99859C5.00016 8.91192 5.02016 8.82525 5.0535 8.74525C5.08683 8.66525 5.1335 8.59192 5.1935 8.52525C5.26016 8.46525 5.32683 8.41859 5.4135 8.38525C5.6535 8.28525 5.9535 8.33859 6.14016 8.52525C6.26016 8.65192 6.3335 8.82525 6.3335 8.99859C6.3335 9.03859 6.32683 9.08525 6.32016 9.13192C6.3135 9.17192 6.30016 9.21192 6.28016 9.25192C6.26683 9.29192 6.24683 9.33192 6.22016 9.37192C6.20016 9.40525 6.16683 9.43859 6.14016 9.47192C6.0135 9.59192 5.84016 9.66525 5.66683 9.66525ZM8.00016 9.66592C7.9135 9.66592 7.82683 9.64592 7.74683 9.61259C7.66016 9.57925 7.5935 9.53259 7.52683 9.47259C7.40683 9.34592 7.3335 9.17925 7.3335 8.99925C7.3335 8.91259 7.3535 8.82592 7.38683 8.74592C7.42016 8.66592 7.46683 8.59259 7.52683 8.52592C7.5935 8.46592 7.66016 8.41925 7.74683 8.38592C7.98683 8.27925 8.28683 8.33925 8.4735 8.52592C8.5935 8.65259 8.66683 8.82592 8.66683 8.99925C8.66683 9.03925 8.66016 9.08592 8.6535 9.13259C8.64683 9.17259 8.6335 9.21259 8.6135 9.25259C8.60016 9.29259 8.58016 9.33259 8.5535 9.37259C8.5335 9.40592 8.50016 9.43925 8.4735 9.47259C8.34683 9.59259 8.1735 9.66592 8.00016 9.66592ZM10.3335 9.66592C10.2468 9.66592 10.1602 9.64592 10.0802 9.61259C9.9935 9.57925 9.92683 9.53259 9.86016 9.47259L9.78016 9.37259C9.75491 9.33543 9.73473 9.29508 9.72016 9.25259C9.7009 9.21481 9.68742 9.17436 9.68016 9.13259C9.6735 9.08592 9.66683 9.03925 9.66683 8.99925C9.66683 8.82592 9.74016 8.65259 9.86016 8.52592C9.92683 8.46592 9.9935 8.41925 10.0802 8.38592C10.3268 8.27925 10.6202 8.33925 10.8068 8.52592C10.9268 8.65259 11.0002 8.82592 11.0002 8.99925C11.0002 9.03925 10.9935 9.08592 10.9868 9.13259C10.9802 9.17259 10.9668 9.21259 10.9468 9.25259C10.9335 9.29259 10.9135 9.33259 10.8868 9.37259C10.8668 9.40592 10.8335 9.43925 10.8068 9.47259C10.6802 9.59259 10.5068 9.66592 10.3335 9.66592ZM5.66683 11.9999C5.58016 11.9999 5.4935 11.9799 5.4135 11.9466C5.3335 11.9133 5.26016 11.8666 5.1935 11.8066C5.0735 11.6799 5.00016 11.5066 5.00016 11.3333C5.00016 11.2466 5.02016 11.1599 5.0535 11.0799C5.08683 10.9933 5.1335 10.9199 5.1935 10.8599C5.44016 10.6133 5.8935 10.6133 6.14016 10.8599C6.26016 10.9866 6.3335 11.1599 6.3335 11.3333C6.3335 11.5066 6.26016 11.6799 6.14016 11.8066C6.0135 11.9266 5.84016 11.9999 5.66683 11.9999ZM8.00016 11.9999C7.82683 11.9999 7.6535 11.9266 7.52683 11.8066C7.40683 11.6799 7.3335 11.5066 7.3335 11.3333C7.3335 11.2466 7.3535 11.1599 7.38683 11.0799C7.42016 10.9933 7.46683 10.9199 7.52683 10.8599C7.7735 10.6133 8.22683 10.6133 8.4735 10.8599C8.5335 10.9199 8.58016 10.9933 8.6135 11.0799C8.64683 11.1599 8.66683 11.2466 8.66683 11.3333C8.66683 11.5066 8.5935 11.6799 8.4735 11.8066C8.34683 11.9266 8.1735 11.9999 8.00016 11.9999ZM10.3335 11.9999C10.1602 11.9999 9.98683 11.9266 9.86016 11.8066C9.79847 11.744 9.75076 11.669 9.72016 11.5866C9.68592 11.5065 9.6678 11.4204 9.66683 11.3333C9.66683 11.2466 9.68683 11.1599 9.72016 11.0799C9.7535 10.9933 9.80016 10.9199 9.86016 10.8599C10.0135 10.7066 10.2468 10.6333 10.4602 10.6799C10.5068 10.6866 10.5468 10.6999 10.5868 10.7199C10.6268 10.7333 10.6668 10.7533 10.7068 10.7799C10.7402 10.7999 10.7735 10.8333 10.8068 10.8599C10.9268 10.9866 11.0002 11.1599 11.0002 11.3333C11.0002 11.5066 10.9268 11.6799 10.8068 11.8066C10.6802 11.9266 10.5068 11.9999 10.3335 11.9999ZM13.6668 6.55992H2.3335C2.06016 6.55992 1.8335 6.33325 1.8335 6.05992C1.8335 5.78659 2.06016 5.55992 2.3335 5.55992H13.6668C13.9402 5.55992 14.1668 5.78659 14.1668 6.05992C14.1668 6.33325 13.9402 6.55992 13.6668 6.55992Z" fill="#253439" fill-opacity="0.7"/>
<path d="M10.6667 15.1666H5.33333C2.9 15.1666 1.5 13.7666 1.5 11.3333V5.66658C1.5 3.23325 2.9 1.83325 5.33333 1.83325H10.6667C13.1 1.83325 14.5 3.23325 14.5 5.66658V11.3333C14.5 13.7666 13.1 15.1666 10.6667 15.1666ZM5.33333 2.83325C3.42667 2.83325 2.5 3.75992 2.5 5.66658V11.3333C2.5 13.2399 3.42667 14.1666 5.33333 14.1666H10.6667C12.5733 14.1666 13.5 13.2399 13.5 11.3333V5.66658C13.5 3.75992 12.5733 2.83325 10.6667 2.83325H5.33333Z" fill="#253439" fill-opacity="0.7"/>
</svg>
