<svg width="18" height="20" viewBox="0 0 18 20" fill="none" xmlns="http://www.w3.org/2000/svg">
<path d="M8.9876 -0.00390625C10.4351 -0.00390625 11.7878 0.402974 12.9353 1.11058C12.5934 1.47585 12.329 1.91431 12.1682 2.39985C11.2457 1.82617 10.1554 1.49569 8.9876 1.49569C5.66297 1.49569 2.97997 4.16922 2.97949 7.49407V11.9025L1.63369 14.9958H16.3502L14.9958 11.9035L14.9959 7.50692L14.9921 7.28178C14.9884 7.17344 14.9818 7.06586 14.9725 6.95912C15.1435 6.98472 15.3185 6.99798 15.4966 6.99798C15.8347 6.99798 16.1616 6.95018 16.4709 6.86099C16.4816 6.98748 16.4892 7.1149 16.4936 7.24319L16.4978 7.49407V11.5899L17.8797 14.7451C17.9489 14.903 17.9846 15.0734 17.9846 15.2457C17.9846 15.9359 17.4241 16.4954 16.7329 16.4954L11.9917 16.4969C11.9917 18.1533 10.6467 19.4961 8.9876 19.4961C7.3878 19.4961 6.08004 18.2475 5.98867 16.6731L5.98312 16.4946L1.25202 16.4954C1.08044 16.4954 0.910702 16.4602 0.753342 16.392C0.119282 16.117 -0.171468 15.3809 0.103942 14.7479L1.47746 11.5909V7.49396C1.47805 3.34029 4.8341 -0.00390625 8.9876 -0.00390625ZM10.4892 16.4946L7.4856 16.4969C7.4856 17.3251 8.1581 17.9965 8.9876 17.9965C9.7684 17.9965 10.41 17.4018 10.4828 16.6413L10.4892 16.4946ZM13.033 3.05266C13.1282 2.52552 13.3889 2.05584 13.7595 1.6992C14.2097 1.26601 14.822 0.999614 15.4966 0.999614C16.8792 0.999614 18 2.11859 18 3.49893C18 4.59182 17.2974 5.52087 16.3185 5.86042C16.0611 5.94973 15.7845 5.99826 15.4966 5.99826C15.2482 5.99826 15.0083 5.96214 14.7818 5.89488C13.7475 5.58775 12.9932 4.63128 12.9932 3.49893C12.9932 3.34661 13.0069 3.19746 13.033 3.05266Z" fill="#253439" fill-opacity="0.7"/>
</svg>
