<svg width="24" height="22" viewBox="0 0 24 22" fill="none" xmlns="http://www.w3.org/2000/svg">
<path d="M18.04 12.1845C17.62 12.5532 17.38 13.0837 17.44 13.6502C17.53 14.6214 18.52 15.3318 19.6 15.3318H21.5V16.4019C21.5 18.2633 19.81 19.7829 17.74 19.7829H6.26C4.19 19.7829 2.5 18.2633 2.5 16.4019V10.3501C2.5 8.48868 4.19 6.96899 6.26 6.96899H17.74C19.81 6.96899 21.5 8.48868 21.5 10.3501V11.645H19.48C18.92 11.645 18.41 11.8428 18.04 12.1845Z" stroke="#253439" stroke-opacity="0.7" stroke-width="1.5" stroke-linecap="round" stroke-linejoin="round"/>
<path d="M2.5 11.1594V7.04991C2.5 5.97983 3.23 5.02665 4.34 4.64898L12.28 1.95131C12.5677 1.85382 12.8774 1.82056 13.1825 1.85439C13.4876 1.88823 13.7791 1.98813 14.0318 2.14554C14.2846 2.30295 14.491 2.51315 14.6335 2.75811C14.7761 3.00307 14.8503 3.27547 14.85 3.55193V6.96898M7 10.7907H14M22.559 12.5622V14.4146C22.559 14.9091 22.119 15.3138 21.559 15.3318H19.599C18.519 15.3318 17.529 14.6214 17.439 13.6502C17.379 13.0837 17.619 12.5532 18.039 12.1845C18.409 11.8428 18.919 11.6449 19.479 11.6449H21.559C22.119 11.6629 22.559 12.0676 22.559 12.5622Z" stroke="#253439" stroke-opacity="0.7" stroke-width="1.5" stroke-linecap="round" stroke-linejoin="round"/>
</svg>
