<svg width="27" height="27" viewBox="0 0 27 27" fill="none" xmlns="http://www.w3.org/2000/svg">
<path d="M13.5 0C6.048 0 0 6.048 0 13.5C0 20.952 6.048 27 13.5 27C20.952 27 27 20.952 27 13.5C27 6.048 20.952 0 13.5 0ZM8.9775 17.2395C8.829 17.6445 8.4375 17.901 8.0325 17.901C7.911 17.901 7.803 17.8875 7.6815 17.8335C6.588 17.4285 5.67 16.632 5.0895 15.5925C3.7395 13.1625 4.5765 9.99 6.939 8.5185L10.098 6.561C11.259 5.8455 12.6225 5.6295 13.9185 5.967C15.2145 6.3045 16.308 7.155 16.9695 8.343C18.3195 10.773 17.4825 13.9455 15.12 15.417L14.769 15.6735C14.5497 15.8283 14.2784 15.891 14.0134 15.8481C13.7484 15.8052 13.5108 15.6601 13.3515 15.444C13.1967 15.2247 13.134 14.9534 13.1769 14.6884C13.2198 14.4234 13.3649 14.1858 13.581 14.0265L13.9995 13.7295C15.5115 12.7845 16.0245 10.827 15.201 9.3285C14.8095 8.6265 14.175 8.127 13.419 7.9245C12.663 7.722 11.8665 7.8435 11.178 8.2755L7.992 10.2465C6.534 11.151 6.021 13.1085 6.8445 14.6205C7.182 15.228 7.722 15.7005 8.37 15.9435C8.8965 16.1325 9.1665 16.713 8.9775 17.2395ZM20.142 18.4275L16.983 20.385C16.42 20.7386 15.7904 20.9726 15.1331 21.0725C14.4759 21.1724 13.8051 21.1359 13.1625 20.9655C11.8665 20.628 10.773 19.7775 10.125 18.5895C8.775 16.1595 9.612 12.987 11.9745 11.5155L12.3255 11.259C12.5448 11.1042 12.8161 11.0415 13.0811 11.0844C13.3461 11.1273 13.5837 11.2724 13.743 11.4885C14.067 11.9475 13.959 12.582 13.5135 12.906L13.095 13.203C11.583 14.148 11.07 16.1055 11.8935 17.604C12.285 18.306 12.9195 18.8055 13.6755 19.008C14.4315 19.2105 15.228 19.089 15.9165 18.657L19.0755 16.6995C20.5335 15.795 21.0465 13.8375 20.223 12.3255C19.8855 11.718 19.3455 11.2455 18.6975 11.0025C18.5722 10.958 18.4571 10.8889 18.359 10.7992C18.261 10.7094 18.1819 10.6009 18.1265 10.4801C18.0711 10.3592 18.0405 10.2285 18.0366 10.0956C18.0326 9.96274 18.0554 9.83043 18.1035 9.7065C18.1486 9.58166 18.2181 9.46706 18.3079 9.36938C18.3978 9.27171 18.5062 9.19292 18.6269 9.13762C18.7475 9.08232 18.878 9.05161 19.0107 9.0473C19.1433 9.04299 19.2755 9.06515 19.3995 9.1125C20.493 9.5175 21.411 10.314 21.9915 11.3535C23.328 13.7835 22.5045 16.956 20.142 18.4275Z" fill="#253439"/>
</svg>
